<svg xmlns="http://www.w3.org/2000/svg" width="11.375" height="11.703" viewBox="0 0 11.375 11.703">
  <path id="_" data-name="" d="M7-11.7l.355.52a5.7,5.7,0,0,1,.465.738,4.894,4.894,0,0,1,.328.6,1.891,1.891,0,0,1,.164.656,1.266,1.266,0,0,1-.383.93A1.266,1.266,0,0,1,7-7.875a1.266,1.266,0,0,1-.93-.383,1.266,1.266,0,0,1-.383-.93,1.891,1.891,0,0,1,.164-.656,4.894,4.894,0,0,1,.328-.6l.465-.738ZM7-7.875H8.313v1.75h2.625a1.691,1.691,0,0,1,1.244.506,1.691,1.691,0,0,1,.506,1.244,1.675,1.675,0,0,1-.437,1.148V0H1.75V-3.227a1.675,1.675,0,0,1-.437-1.148,1.691,1.691,0,0,1,.506-1.244,1.691,1.691,0,0,1,1.244-.506H5.688v-1.75H7Zm0-2.242a.214.214,0,0,0-.041.055.121.121,0,0,0-.014.055,2.948,2.948,0,0,0-.273.52.431.431,0,0,0-.068.15.946.946,0,0,1-.027.109l-.014.041a.426.426,0,0,0,.123.314A.426.426,0,0,0,7-8.75a.426.426,0,0,0,.314-.123.426.426,0,0,0,.123-.314l-.014-.041A.946.946,0,0,1,7.4-9.338a.431.431,0,0,0-.068-.15,2.948,2.948,0,0,0-.273-.52.121.121,0,0,0-.014-.055A.214.214,0,0,0,7-10.117ZM6.563-7v.875h.875V-7Zm-3.5,1.75A.852.852,0,0,0,2.434-5a.852.852,0,0,0-.246.629.852.852,0,0,0,.246.629.852.852,0,0,0,.629.246.852.852,0,0,0,.629-.246.852.852,0,0,0,.246-.629h.875a.852.852,0,0,0,.246.629.852.852,0,0,0,.629.246.852.852,0,0,0,.629-.246.852.852,0,0,0,.246-.629h.875a.852.852,0,0,0,.246.629.852.852,0,0,0,.629.246.852.852,0,0,0,.629-.246.852.852,0,0,0,.246-.629h.875a.852.852,0,0,0,.246.629.852.852,0,0,0,.629.246.852.852,0,0,0,.629-.246.852.852,0,0,0,.246-.629A.852.852,0,0,0,11.566-5a.852.852,0,0,0-.629-.246ZM4.375-3.227a1.66,1.66,0,0,1-1.312.6,2.353,2.353,0,0,1-.437-.055v1.8h8.75v-1.8a2.353,2.353,0,0,1-.437.055,1.66,1.66,0,0,1-1.312-.6,1.66,1.66,0,0,1-1.312.6A1.66,1.66,0,0,1,7-3.227a1.66,1.66,0,0,1-1.312.6A1.66,1.66,0,0,1,4.375-3.227Z" transform="translate(-1.313 11.703)" fill="#2c2d30"/>
</svg>
