<svg xmlns="http://www.w3.org/2000/svg" width="10.5" height="10.5" viewBox="0 0 10.5 10.5">
  <path id="_" data-name="ï†" d="M3.295-8.955A5.054,5.054,0,0,1,7-10.5a5.054,5.054,0,0,1,3.705,1.545A5.054,5.054,0,0,1,12.25-5.25a5.054,5.054,0,0,1-1.545,3.705A5.054,5.054,0,0,1,7,0,5.054,5.054,0,0,1,3.295-1.545,5.054,5.054,0,0,1,1.75-5.25,5.054,5.054,0,0,1,3.295-8.955Zm6.795.615A4.213,4.213,0,0,0,7-9.625,4.213,4.213,0,0,0,3.91-8.34,4.213,4.213,0,0,0,2.625-5.25,4.213,4.213,0,0,0,3.91-2.16,4.213,4.213,0,0,0,7-.875,4.213,4.213,0,0,0,10.09-2.16a4.213,4.213,0,0,0,1.285-3.09A4.213,4.213,0,0,0,10.09-8.34ZM6.563-8.75h.875v3.063H9.625v.875H6.563V-8.75Z" transform="translate(-1.75 10.5)" fill="#2c2d30"/>
</svg>
