<svg xmlns="http://www.w3.org/2000/svg" width="12.25" height="9.297" viewBox="0 0 12.25 9.297">
  <path id="_" data-name="" d="M12.223,1.828l.328,1.859h-.9l-.137-.848-4.949.848h-5.2ZM.875,4.125h12.25v7H.875v-7ZM3.035,5a1.176,1.176,0,0,1,.027.219A1.074,1.074,0,0,1,1.969,6.313a1.176,1.176,0,0,1-.219-.027v2.68a1.176,1.176,0,0,1,.219-.027,1.074,1.074,0,0,1,1.094,1.094,1.176,1.176,0,0,1-.027.219h7.93a1.176,1.176,0,0,1-.027-.219,1.074,1.074,0,0,1,1.094-1.094,1.176,1.176,0,0,1,.219.027V6.285a1.176,1.176,0,0,1-.219.027,1.074,1.074,0,0,1-1.094-1.094A1.176,1.176,0,0,1,10.965,5Zm2.42,1.08a2.178,2.178,0,0,1,3.09,0,2.178,2.178,0,0,1,0,3.09,2.178,2.178,0,0,1-3.09,0,2.178,2.178,0,0,1,0-3.09ZM7.93,6.7A1.315,1.315,0,0,0,6.07,8.555,1.315,1.315,0,0,0,7.93,6.7Z" transform="translate(-0.875 -1.828)" fill="#2c2d30"/>
</svg>
