<svg xmlns="http://www.w3.org/2000/svg" width="9" height="13.375" viewBox="0 0 9 13.375">
  <g id="lives_in" transform="translate(-3.5 -30.5)">
    <path id="_" data-name="" d="M-11.187-11.187A4.34,4.34,0,0,1-8-12.5a4.34,4.34,0,0,1,3.188,1.313A4.34,4.34,0,0,1-3.5-8a6.185,6.185,0,0,1-.687,2.375A20.654,20.654,0,0,1-5.562-2.937Q-6-2.156-6.516-1.344t-.8,1.219l-.281.406L-8,.875-8.406.281q-1.031-1.469-2.031-3.219a20.654,20.654,0,0,1-1.375-2.687A6.185,6.185,0,0,1-12.5-8,4.34,4.34,0,0,1-11.187-11.187Zm5.672.7A3.379,3.379,0,0,0-8-11.5a3.379,3.379,0,0,0-2.484,1.016A3.379,3.379,0,0,0-11.5-8a5.888,5.888,0,0,0,.563,2A28.028,28.028,0,0,0-9.562-3.437Q-8.781-2.094-8-.937q.781-1.156,1.563-2.5A28.028,28.028,0,0,0-5.062-6,5.888,5.888,0,0,0-4.5-8,3.379,3.379,0,0,0-5.516-10.484ZM-8.7-8.7A.961.961,0,0,1-8-9a.961.961,0,0,1,.7.3A.961.961,0,0,1-7-8a.961.961,0,0,1-.3.7A.961.961,0,0,1-8-7a.961.961,0,0,1-.7-.3A.961.961,0,0,1-9-8,.961.961,0,0,1-8.7-8.7Z" transform="translate(16 43)" fill="#535b66"/>
  </g>
</svg>
