<svg xmlns="http://www.w3.org/2000/svg" width="13.68" height="13.68" viewBox="0 0 13.68 13.68">
  <path id="_" data-name="" d="M6.342-11.721a5.116,5.116,0,0,1,3.752-1.561,5.116,5.116,0,0,1,3.752,1.561,5.116,5.116,0,0,1,1.561,3.752,5.116,5.116,0,0,1-1.561,3.752,5.116,5.116,0,0,1-3.752,1.561,5.146,5.146,0,0,1-3.354-1.2L2.523.4l-.8-.8,4.25-4.217a5.146,5.146,0,0,1-1.2-3.354A5.116,5.116,0,0,1,6.342-11.721Zm6.757.747a4.1,4.1,0,0,0-3-1.245,4.1,4.1,0,0,0-3,1.245,4.1,4.1,0,0,0-1.245,3,4.1,4.1,0,0,0,1.245,3,4.1,4.1,0,0,0,3,1.245,4.1,4.1,0,0,0,3-1.245,4.1,4.1,0,0,0,1.245-3A4.1,4.1,0,0,0,13.1-10.974Z" transform="translate(-1.727 13.281)" fill="#fff"/>
</svg>
