<svg xmlns="http://www.w3.org/2000/svg" width="7.875" height="10.5" viewBox="0 0 7.875 10.5">
  <path id="_" data-name="" d="M3.063,1.5h7.875v.875h-.875v1.75a2.94,2.94,0,0,1-.41,1.518A3.186,3.186,0,0,1,8.586,6.75,3.186,3.186,0,0,1,9.652,7.857a2.94,2.94,0,0,1,.41,1.518v1.75h.875V12H3.063v-.875h.875V9.375a2.94,2.94,0,0,1,.41-1.518A3.186,3.186,0,0,1,5.414,6.75,3.186,3.186,0,0,1,4.348,5.643a2.94,2.94,0,0,1-.41-1.518V2.375H3.063Zm1.75.875v1.75A2.106,2.106,0,0,0,5.455,5.67a2.178,2.178,0,0,0,3.09,0,2.106,2.106,0,0,0,.643-1.545V2.375ZM5.3,4.563H8.7a1.811,1.811,0,0,1-.629.943,1.725,1.725,0,0,1-2.133,0A1.811,1.811,0,0,1,5.3,4.563ZM8.545,7.83a2.178,2.178,0,0,0-3.09,0,2.106,2.106,0,0,0-.643,1.545v1.75H5.25A1.728,1.728,0,0,1,7,9.375a1.728,1.728,0,0,1,1.75,1.75h.438V9.375A2.106,2.106,0,0,0,8.545,7.83Z" transform="translate(-3.063 -1.5)" fill="#2c2d30"/>
</svg>
