<svg xmlns="http://www.w3.org/2000/svg" width="13" height="13.375" viewBox="0 0 13 13.375">
  <g id="age" transform="translate(-1.5 -87.625)">
    <path id="_" data-name="" d="M-8-13.375l.406.594a6.51,6.51,0,0,1,.531.844,5.593,5.593,0,0,1,.375.688,2.161,2.161,0,0,1,.188.75,1.447,1.447,0,0,1-.437,1.063A1.447,1.447,0,0,1-8-9a1.447,1.447,0,0,1-1.062-.437A1.447,1.447,0,0,1-9.5-10.5a2.161,2.161,0,0,1,.188-.75,5.593,5.593,0,0,1,.375-.687l.531-.844ZM-8-9h1.5v2h3a1.933,1.933,0,0,1,1.422.578A1.933,1.933,0,0,1-1.5-5,1.914,1.914,0,0,1-2-3.687V0H-14V-3.687A1.914,1.914,0,0,1-14.5-5a1.933,1.933,0,0,1,.578-1.422A1.933,1.933,0,0,1-12.5-7h3V-9H-8Zm0-2.562a.245.245,0,0,0-.047.063.139.139,0,0,0-.016.063,3.37,3.37,0,0,0-.312.594.493.493,0,0,0-.078.172,1.081,1.081,0,0,1-.031.125L-8.5-10.5a.487.487,0,0,0,.141.359A.487.487,0,0,0-8-10a.487.487,0,0,0,.359-.141A.487.487,0,0,0-7.5-10.5l-.016-.047a1.081,1.081,0,0,1-.031-.125.493.493,0,0,0-.078-.172,3.37,3.37,0,0,0-.312-.594.139.139,0,0,0-.016-.062A.245.245,0,0,0-8-11.562ZM-8.5-8v1h1V-8Zm-4,2a.973.973,0,0,0-.719.281A.973.973,0,0,0-13.5-5a.973.973,0,0,0,.281.719A.973.973,0,0,0-12.5-4a.973.973,0,0,0,.719-.281A.973.973,0,0,0-11.5-5h1a.973.973,0,0,0,.281.719A.973.973,0,0,0-9.5-4a.973.973,0,0,0,.719-.281A.973.973,0,0,0-8.5-5h1a.973.973,0,0,0,.281.719A.973.973,0,0,0-6.5-4a.973.973,0,0,0,.719-.281A.973.973,0,0,0-5.5-5h1a.973.973,0,0,0,.281.719A.973.973,0,0,0-3.5-4a.973.973,0,0,0,.719-.281A.973.973,0,0,0-2.5-5a.973.973,0,0,0-.281-.719A.973.973,0,0,0-3.5-6ZM-11-3.687A1.9,1.9,0,0,1-12.5-3a2.689,2.689,0,0,1-.5-.062V-1H-3V-3.062A2.689,2.689,0,0,1-3.5-3,1.9,1.9,0,0,1-5-3.687,1.9,1.9,0,0,1-6.5-3,1.9,1.9,0,0,1-8-3.687,1.9,1.9,0,0,1-9.5-3,1.9,1.9,0,0,1-11-3.687Z" transform="translate(16 101)" fill="#535b66"/>
  </g>
</svg>
