<svg xmlns="http://www.w3.org/2000/svg" width="12.875" height="12.875" viewBox="0 0 12.875 12.875">
  <g id="gender" transform="translate(-1.625 -59.5)">
    <path id="_" data-name="ï¬" d="M-5-12.5h3.5V-9h-1v-1.781L-4.187-9.094A3.456,3.456,0,0,1-3.5-7,3.368,3.368,0,0,1-4.531-4.531l-.281.281A4.555,4.555,0,0,0-4.75-5a5.77,5.77,0,0,0-.062-.812A2.41,2.41,0,0,0-4.5-7a2.407,2.407,0,0,0-.734-1.766A2.407,2.407,0,0,0-7-9.5a2.407,2.407,0,0,0-1.766.734A2.407,2.407,0,0,0-9.5-7a2.332,2.332,0,0,0,.75,1.75,2.274,2.274,0,0,0,1.438.719,2.182,2.182,0,0,1-.437.781,1.413,1.413,0,0,0-.187.125,3.491,3.491,0,0,1-1.531-.906A3.368,3.368,0,0,1-10.5-7,3.368,3.368,0,0,1-9.469-9.469,3.368,3.368,0,0,1-7-10.5a3.456,3.456,0,0,1,2.094.688L-3.219-11.5H-5ZM-8.062-8.375a3.491,3.491,0,0,1,1.531.906A3.368,3.368,0,0,1-5.5-5,3.368,3.368,0,0,1-6.531-2.531,3.368,3.368,0,0,1-9-1.5a3.456,3.456,0,0,1-2.094-.687l-.844.813,1,1-.687.75-1-1-1,1-.75-.75,1-1-1-1,.75-.687,1,1,.813-.844A3.456,3.456,0,0,1-12.5-5a3.368,3.368,0,0,1,1.031-2.469l.281-.281A4.555,4.555,0,0,0-11.25-7a5.77,5.77,0,0,0,.063.813A2.41,2.41,0,0,0-11.5-5a2.407,2.407,0,0,0,.734,1.766A2.407,2.407,0,0,0-9-2.5a2.407,2.407,0,0,0,1.766-.734A2.407,2.407,0,0,0-6.5-5a2.332,2.332,0,0,0-.75-1.75,2.274,2.274,0,0,0-1.437-.719A2.182,2.182,0,0,1-8.25-8.25,1.413,1.413,0,0,0-8.062-8.375Z" transform="translate(16 72)" fill="#535b66"/>
  </g>
</svg>
