<svg xmlns="http://www.w3.org/2000/svg" width="17.875" height="16.5" viewBox="0 0 17.875 16.5">
  <g id="achievements_inactive" transform="translate(-39.063 -2.5)">
    <path id="_" data-name="ï¤" d="M4.965,3.188A2.791,2.791,0,0,1,6.813,2.5a2.632,2.632,0,0,1,1.8.688h8.766a2.632,2.632,0,0,1,1.8-.687,2.791,2.791,0,0,1,1.848.688,2.662,2.662,0,0,1,.9,2.063A3.023,3.023,0,0,1,21.25,7.1a11.053,11.053,0,0,1-1.289,1.246,11.6,11.6,0,0,0-1.1,1.225A1.933,1.933,0,0,0,18.5,10.75a1.04,1.04,0,0,0,.258.559l.258.3-1.031.988a3.153,3.153,0,0,1-.43-.559,3,3,0,0,1-.43-1.117,5.9,5.9,0,0,1-.258.73,12.6,12.6,0,0,1-1.633,3.137,4.428,4.428,0,0,1-.687.773,2.737,2.737,0,0,1,1.826.881,2.631,2.631,0,0,1,.752,1.869V19H8.875v-.687a2.631,2.631,0,0,1,.752-1.869,2.737,2.737,0,0,1,1.826-.881,3.8,3.8,0,0,1-.73-.773A13.725,13.725,0,0,1,9.09,11.652q0-.043-.215-.645a2.647,2.647,0,0,1-.43,1.031l-.43.559-1.031-.988a.932.932,0,0,0,.258-.3A1.04,1.04,0,0,0,7.5,10.75a1.933,1.933,0,0,0-.365-1.182,11.6,11.6,0,0,0-1.1-1.225A11.053,11.053,0,0,1,4.75,7.1,3.023,3.023,0,0,1,4.063,5.25,2.662,2.662,0,0,1,4.965,3.188Zm1.848.688a1.479,1.479,0,0,0-.945.344,1.406,1.406,0,0,0-.43,1.031,1.714,1.714,0,0,0,.387,1.031A9.052,9.052,0,0,0,6.9,7.355,8.289,8.289,0,0,1,8.145,8.6,21.464,21.464,0,0,1,7.5,4.047,1.525,1.525,0,0,0,6.813,3.875Zm12.375,0a1.525,1.525,0,0,0-.687.172,21.161,21.161,0,0,1-.687,4.641A10.64,10.64,0,0,1,19.1,7.355a9.052,9.052,0,0,0,1.074-1.074,1.714,1.714,0,0,0,.387-1.031,1.406,1.406,0,0,0-.43-1.031A1.479,1.479,0,0,0,19.188,3.875ZM8.961,4.563a21.213,21.213,0,0,0,1.418,6.617,12.118,12.118,0,0,0,1.461,2.75q.687.945,1.16.945.43,0,1.117-.945a10.989,10.989,0,0,0,1.461-2.75,20.832,20.832,0,0,0,1.461-6.617Zm3.352,2.063h1.375v3.438H12.313Zm-.687,10.313a1.252,1.252,0,0,0-1.074.688h4.9a1.252,1.252,0,0,0-1.074-.687Z" transform="translate(35)" fill="#535b66"/>
  </g>
</svg>
