<svg xmlns="http://www.w3.org/2000/svg" width="20" height="20" viewBox="0 0 20 20">
  <g id="Browse_Countries" data-name="Browse Countries" transform="translate(0 -3)">
    <rect id="With_Icon_University_background" data-name="With Icon / University background" width="20" height="20" transform="translate(0 3)" fill="rgba(0,0,0,0)"/>
    <g id="icons8-geography" transform="translate(0 3)" opacity="0.8">
      <path id="Shape" d="M20,10A10,10,0,1,1,10,0,10.009,10.009,0,0,1,20,10Z" transform="translate(0 0)" fill="#ced9ed"/>
      <path id="Shape-2" data-name="Shape" d="M2.528,11.106c.227.113.455.113.569.341.341.342.341.909.455,1.251a6.376,6.376,0,0,0,.455,1.364c.114.569.341,1.137.455,1.591.074-.058.161-.112.244-.167A9.964,9.964,0,0,0,8.779,7.448,9.952,9.952,0,0,0,5.536.06.992.992,0,0,0,4.8.082c-.341.114-.568.569-.8.8L3.324,1.9c-.114.114-.227.341-.114.455,0,.114.114.114.227.114.227.114.342.114.569.227.114,0,.227.114.114.227a.112.112,0,0,1-.114.114C3.438,3.606,2.87,4.06,2.3,4.628a.862.862,0,0,0-.227.455c0,.114.114.114.114.227s-.114.114-.227.227a2.484,2.484,0,0,0-.568.342c-.114.227,0,.568-.114.8A9.6,9.6,0,0,1,.6,8.266c-.227.341-.341.682-.567,1.023,0,.455-.114.8.113,1.136C.71,11.219,1.732,10.764,2.528,11.106Z" transform="translate(11.221 2.552)" fill="#b5c4e0"/>
      <path id="Shape-3" data-name="Shape" d="M4.466.637A10.108,10.108,0,0,0,.927,0C.721,0,.518.01.316.022a2.935,2.935,0,0,0-.3.567c-.114.568.341.455.8.568,0,0,.114.909.114,1.023C1.04,2.748.7,3.088.7,3.657.7,4,.7,4.566.927,4.793H1.04c.114,0,.227-.114.455-.227.341-.227.682-.568,1.023-.8a6.467,6.467,0,0,0,.909-.8,2.042,2.042,0,0,0,.682-1.023c.114-.227.5-.9.389-1.237C4.489.7,4.477.665,4.466.637Z" transform="translate(9.073 0)" fill="#b5c4e0"/>
      <path id="Shape-4" data-name="Shape" d="M.227,8.26a5.19,5.19,0,0,0,1.7,1.818c.455.341,1.364.341,1.818.909a2.5,2.5,0,0,1,.227,1.591A5.02,5.02,0,0,0,4.659,14.4c.114.342.227.8.341,1.137,0,.114.114.8.114.909a.25.25,0,0,1,.093.112,9.955,9.955,0,0,0,1.925.8c.008,0,.019-.006.028,0,.114,0,.568-.682.568-.8a8.258,8.258,0,0,1,.909-1.023,2.361,2.361,0,0,0,.682-.455,2.806,2.806,0,0,0,.455-1.023,1.517,1.517,0,0,0,.114-1.022.615.615,0,0,0-.341-.455,4.123,4.123,0,0,1-1.932-.8c-.114-.227-.114-.455-.227-.682a3.4,3.4,0,0,0-1.136-.455H3.977c-.341-.114-.568-.568-.8-.909,0-.114,0-.342-.227-.342-.227-.113-.455.114-.682,0a.417.417,0,0,1-.114-.341,1.4,1.4,0,0,1,.455-.909c.341-.226.682.114,1.022.114.114,0,.114,0,.227.114.341.114.455.568.455.909V9.51c0,.114.114.114.227.114.114-.568.114-1.137.227-1.7a2.011,2.011,0,0,1,1.25-1.591c.227-.113.341.114.568,0C7.273,6.1,8.977,5.419,8.636,4.51A1.824,1.824,0,0,0,6.818,3.033c-.227.114-.341.227-.568.342-.341.227-1.023.909-1.364.909-.568-.114-.568-.909-.455-1.251.114-.455,1.136-1.931,1.818-1.7l.455.455a2.215,2.215,0,0,0,.909.114.418.418,0,0,0,.341-.114c.114-.114.114-.114.114-.227,0-.341-.341-.682-.568-.909A2.462,2.462,0,0,0,6.592.079,7.369,7.369,0,0,0,3.08.541,9.959,9.959,0,0,0,0,7.786c0,.048,0,.095.005.143C.086,8.043.164,8.155.227,8.26Z" transform="translate(0 2.214)" fill="#b5c4e0"/>
      <path id="Shape-5" data-name="Shape" d="M10,20A10.024,10.024,0,1,1,20,10,10.011,10.011,0,0,1,10,20ZM10,.526A9.373,9.373,0,0,0,.526,10a9.473,9.473,0,0,0,18.947,0A9.373,9.373,0,0,0,10,.526Z" fill="#8d6c9f"/>
      <rect id="Rectangle-path" width="18.947" height="0.526" transform="translate(0.526 7.895)" fill="#8d6c9f"/>
      <rect id="Rectangle-path-2" data-name="Rectangle-path" width="18.947" height="0.526" transform="translate(0.526 11.579)" fill="#8d6c9f"/>
      <rect id="Rectangle-path-3" data-name="Rectangle-path" width="16.316" height="0.526" transform="translate(1.842 15.263)" fill="#8d6c9f"/>
      <rect id="Rectangle-path-4" data-name="Rectangle-path" width="15.789" height="0.526" transform="translate(2.105 4.211)" fill="#8d6c9f"/>
      <g id="Group" transform="translate(3.156)">
        <path id="Shape-6" data-name="Shape" d="M2.632,20C1.181,20,0,15.514,0,10S1.181,0,2.632,0,5.263,4.486,5.263,10,4.083,20,2.632,20Zm0-19.473C1.917.526.527,3.87.527,10s1.391,9.473,2.105,9.473S4.737,16.13,4.737,10,3.346.526,2.632.526Z" transform="translate(4.211)" fill="#8d6c9f"/>
        <path id="Shape-7" data-name="Shape" d="M6.842,20C3.069,20,0,15.514,0,10S3.069,0,6.842,0s6.843,4.486,6.843,10S10.615,20,6.842,20Zm0-19.473C3.36.526.526,4.776.526,10s2.833,9.473,6.315,9.473,6.316-4.25,6.316-9.473S10.325.526,6.842.526Z" transform="translate(0)" fill="#8d6c9f"/>
      </g>
    </g>
  </g>
</svg>
