<svg xmlns="http://www.w3.org/2000/svg" width="9" height="12.168" viewBox="0 0 9 12.168">
  <g id="days" transform="translate(0 -2)">
    <g id="Combined_Shape" data-name="Combined Shape" transform="translate(1.5 2)" fill="none" stroke-miterlimit="10">
      <path d="M3,6.048a3,3,0,0,1-3-3V0H6V3.048A3,3,0,0,1,3,6.048Z" stroke="none"/>
      <path d="M 2.99970006942749 5.047999858856201 C 4.102829933166504 5.047999858856201 5.00029993057251 4.15093994140625 5.00029993057251 3.04830002784729 L 5.00029993057251 0.9999999403953552 L 0.9999999403953552 0.9999999403953552 L 0.9999999403953552 3.04830002784729 C 0.9999999403953552 4.15093994140625 1.897059917449951 5.047999858856201 2.99970006942749 5.047999858856201 M 2.99970006942749 6.047999858856201 C 1.345659971237183 6.047999858856201 -3.471374654395731e-08 4.702340126037598 -3.471374654395731e-08 3.04830002784729 L -3.471374654395731e-08 -7.05719003235572e-08 L 6.00029993057251 -7.05719003235572e-08 L 6.00029993057251 3.04830002784729 C 6.00029993057251 4.702340126037598 4.654240131378174 6.047999858856201 2.99970006942749 6.047999858856201 Z" stroke="none" fill="#535b66"/>
    </g>
    <g id="Combined_Shape-2" data-name="Combined Shape" transform="translate(1.5 7.544)" fill="none" stroke-miterlimit="10">
      <path d="M6,6.552H0c0-.048,0-.1,0-.144V3A3,3,0,0,1,6,3V6.408c0,.047,0,.095,0,.143Z" stroke="none"/>
      <path d="M 5.00029993057251 5.552000045776367 L 5.00029993057251 2.99970006942749 C 5.00029993057251 1.897060036659241 4.102829933166504 1 2.99970006942749 1 C 1.897059917449951 1 0.9999999403953552 1.897060036659241 0.9999999403953552 2.99970006942749 L 0.9999999403953552 5.552000045776367 L 5.00029993057251 5.552000045776367 M 5.996840000152588 6.552000045776367 L 5.995890140533447 6.552000045776367 L 0.003439965192228556 6.552000045776367 C 0.001159965293481946 6.503620147705078 -3.471374654395731e-08 6.455170154571533 -3.471374654395731e-08 6.407999992370605 L -3.471374654395731e-08 2.99970006942749 C -3.471374654395731e-08 1.345659971237183 1.345659971237183 2.288818379270197e-08 2.99970006942749 2.288818379270197e-08 C 4.654240131378174 2.288818379270197e-08 6.00029993057251 1.345659971237183 6.00029993057251 2.99970006942749 L 6.00029993057251 6.407999992370605 C 6.00029993057251 6.4546799659729 5.999149799346924 6.502799987792969 5.996890068054199 6.551050186157227 L 5.996840000152588 6.552000045776367 Z" stroke="none" fill="#535b66"/>
    </g>
    <g id="Rectangle_23" data-name="Rectangle 23" transform="translate(0 2)" fill="#d8d8d8" stroke="#535b66" stroke-miterlimit="10" stroke-width="0.625">
      <rect width="9" height="0.9" rx="0.45" stroke="none"/>
      <rect x="0.313" y="0.313" width="8.375" height="0.275" rx="0.137" fill="none"/>
    </g>
    <g id="Rectangle_23_Copy" data-name="Rectangle 23 Copy" transform="translate(0 13.268)" fill="#d8d8d8" stroke="#535b66" stroke-miterlimit="10" stroke-width="0.625">
      <rect width="9" height="0.9" rx="0.45" stroke="none"/>
      <rect x="0.313" y="0.313" width="8.375" height="0.275" rx="0.137" fill="none"/>
    </g>
    <path id="Combined_Shape-3" data-name="Combined Shape" d="M2.914,2.016H.085A1.515,1.515,0,0,1,1.5,0,1.515,1.515,0,0,1,2.915,2.015Z" transform="translate(3 11.972)" fill="#535b66"/>
    <path id="Combined_Shape-4" data-name="Combined Shape" d="M1.5,1.171A1.55,1.55,0,0,1,0,0H3A1.551,1.551,0,0,1,1.5,1.171Z" transform="translate(3.063 5.528)" fill="#535b66"/>
  </g>
</svg>
