<svg xmlns="http://www.w3.org/2000/svg" width="266.825" height="82.386" viewBox="0 0 266.825 82.386">
  <g id="edit_profile_no_work" transform="translate(-131.625 1.04)">
    <path id="_" data-name="" d="M25.43-45.293A7.145,7.145,0,0,1,30-46.875a7.145,7.145,0,0,1,4.57,1.582,7.762,7.762,0,0,1,2.7,4.043H54.375v37.5H5.625v-37.5H22.734A7.762,7.762,0,0,1,25.43-45.293Zm7.852,4.043A3.358,3.358,0,0,0,30-43.125a3.358,3.358,0,0,0-3.281,1.875ZM9.375-37.5v16.875h41.25V-37.5ZM28.652-25.723A1.825,1.825,0,0,1,30-26.25a1.825,1.825,0,0,1,1.348.527,1.825,1.825,0,0,1,.527,1.348,1.825,1.825,0,0,1-.527,1.348A1.825,1.825,0,0,1,30-22.5a1.825,1.825,0,0,1-1.348-.527,1.825,1.825,0,0,1-.527-1.348A1.825,1.825,0,0,1,28.652-25.723ZM9.375-16.875V-7.5h41.25v-9.375Z" transform="translate(126 70)" fill="#7d8897"/>
    <path id="Path_3" data-name="Path 3" stroke="#7d8897" d="M0,66s68.6-7.9,59.777-40.478S5.88-5.084,5.88,12.687,76.436,62.2,146.013,33,205.79,12.687,205.79,12.687" fill="none" transform="matrix(0.998, -0.07, 0.07, 0.998, 187, 14.44)" stroke-linecap="round" stroke-linejoin="round" stroke-miterlimit="10" stroke-width="2" stroke-dasharray="4"/>
  </g>
</svg>
