<svg xmlns="http://www.w3.org/2000/svg" width="16" height="16" viewBox="0 0 16 16">
  <g id="edit_pen" transform="translate(-250 -18)">
    <path id="Shape" d="M0,16H0l.206-.967.719-3.62.041-.205L11.372.8A2.705,2.705,0,1,1,15.2,4.627L4.792,15.034l-.205.041-3.62.72L0,16Zm2.117-3.846-.432,2.159,2.159-.432A3.1,3.1,0,0,0,2.119,12.155Zm8.8-9.029h0l-7.96,7.959a4.479,4.479,0,0,1,1.954,1.954L12.874,5.08,10.921,3.126Zm2.364-1.871a1.4,1.4,0,0,0-.986.472l-.453.473L13.8,4.154l.472-.453a1.412,1.412,0,0,0,.481-.987,1.412,1.412,0,0,0-.481-.987A1.4,1.4,0,0,0,13.285,1.255Z" transform="translate(250 18)" fill="#2bb798"/>
  </g>
</svg>
