<svg xmlns="http://www.w3.org/2000/svg" width="24" height="24" viewBox="0 0 24 24">
  <g id="edit_university" transform="translate(-1038 -485)">
    <circle id="Oval_3" data-name="Oval 3" cx="12" cy="12" r="12" transform="translate(1038 485)" fill="rgba(43,183,152,0.2)"/>
    <path id="Shape" d="M0,8.727v0l1.022-3.2L6.546,0A2.433,2.433,0,0,1,8,.727a2.439,2.439,0,0,1,.727,1.454L3.2,7.7,0,8.727ZM1.42,5.886,1.012,7.159l.545.545,1.3-.41-.011-.023A1.729,1.729,0,0,0,2.3,6.431a2.124,2.124,0,0,0-.876-.545h0Z" transform="translate(1045.636 492.636)" fill="#2bb798"/>
  </g>
</svg>
