<svg xmlns="http://www.w3.org/2000/svg" width="33" height="33" viewBox="0 0 33 33">
  <g id="edit_prfile_photo" transform="translate(-679.5 -68.5)">
    <circle id="Oval_2" data-name="Oval 2" cx="16" cy="16" r="16" transform="translate(680 69)" fill="none" stroke="#2bb798" stroke-miterlimit="10" stroke-width="1"/>
    <path id="Shape" d="M0,14H0l.18-.846L.81,9.987l.036-.18L9.951.7A2.367,2.367,0,1,1,13.3,4.049L4.193,13.154l-.18.036-3.167.63L0,14Zm1.851-3.365-.377,1.889,1.889-.378A2.713,2.713,0,0,0,1.853,10.635Zm7.7-7.9L2.591,9.7A3.918,3.918,0,0,1,4.3,11.408l6.963-6.963ZM11.624,1.1a1.224,1.224,0,0,0-.863.414l-.4.413,1.709,1.71.414-.4a1.1,1.1,0,0,0,0-1.727A1.225,1.225,0,0,0,11.624,1.1Z" transform="translate(689 78)" fill="#2bb798"/>
  </g>
</svg>
