<svg xmlns="http://www.w3.org/2000/svg" width="9.75" height="9.75" viewBox="0 0 9.75 9.75">
  <g id="featured" transform="translate(-1.125 -1.625)">
    <path id="_" data-name="" d="M2.555-7.945A4.7,4.7,0,0,1,6-9.375a4.7,4.7,0,0,1,3.445,1.43A4.7,4.7,0,0,1,10.875-4.5a4.7,4.7,0,0,1-1.43,3.445A4.7,4.7,0,0,1,6,.375a4.7,4.7,0,0,1-3.445-1.43A4.7,4.7,0,0,1,1.125-4.5,4.7,4.7,0,0,1,2.555-7.945Zm6.363.527A3.975,3.975,0,0,0,6-8.625,3.975,3.975,0,0,0,3.082-7.418,3.975,3.975,0,0,0,1.875-4.5,3.975,3.975,0,0,0,3.082-1.582,3.975,3.975,0,0,0,6-.375,3.975,3.975,0,0,0,8.918-1.582,3.975,3.975,0,0,0,10.125-4.5,3.975,3.975,0,0,0,8.918-7.418ZM5.625-6.75h.75V-6h-.75Zm0,1.5h.75v3h-.75Z" transform="translate(0 11)" fill="#7d8897"/>
  </g>
</svg>
