<svg xmlns="http://www.w3.org/2000/svg" width="16.484" height="16.523" viewBox="0 0 16.484 16.523">
  <g id="featured_scholarships_pin" transform="translate(-1.875 -2.102)">
    <path id="_" data-name="" d="M12.813-15.9l.469.43,4.688,4.688.391.469-.391.469a3.46,3.46,0,0,1-3.008.938L12.734-6.641a4.929,4.929,0,0,1-.02,2.5,4.785,4.785,0,0,1-1.27,2.188l-.43.469-.469-.469L7.93-4.57l-5.2,5.2H1.875V-.234l5.2-5.2-2.7-2.7-.469-.43.469-.43A4.622,4.622,0,0,1,8.75-10.352l2.578-2.539a4.2,4.2,0,0,1,1.016-2.539Zm.117,1.914a3.033,3.033,0,0,0-.43,1.445v.234l-.156.2L9.453-9.219l-.273.234-.352-.078a3.436,3.436,0,0,0-3.008.625L10.938-3.32a3.557,3.557,0,0,0,.547-3.359l-.156-.352.313-.312,2.578-2.578.273-.273.352.117a2.344,2.344,0,0,0,1.641-.352Z" transform="translate(0 18)" fill="#2c2d30"/>
  </g>
</svg>
