<svg xmlns="http://www.w3.org/2000/svg" width="20.028" height="28" viewBox="0 0 20.028 28">
  <path id="_" data-name="" d="M-3.125-25.125A2.893,2.893,0,0,1-1-26a2.893,2.893,0,0,1,2.125.875A2.893,2.893,0,0,1,2-23v3.875a2.945,2.945,0,0,1,2.375,0,2.985,2.985,0,0,1,1.5,1.375,2.656,2.656,0,0,1,2.25,0A2.747,2.747,0,0,1,10-15.25V-5A6.737,6.737,0,0,1,7.938-.062,6.737,6.737,0,0,1,3,2H-2.25A6.912,6.912,0,0,1-6.437.625,6.874,6.874,0,0,1-9-2.937l-.75-2.5V-5.5a5.624,5.624,0,0,1-.187-2.75,4.3,4.3,0,0,1,2.063-3.125,4.233,4.233,0,0,1,.625-.312l-2.625-8.437a2.82,2.82,0,0,1,.219-2.281,2.975,2.975,0,0,1,1.781-1.469,2.82,2.82,0,0,1,2.281.219,2.975,2.975,0,0,1,1.469,1.781L-4-21.5V-23A2.893,2.893,0,0,1-3.125-25.125ZM0-23a.884.884,0,0,0-1-1,.884.884,0,0,0-1,1v8.25h-.875L-4-14.437-6-21.25a.955.955,0,0,0-.5-.625,1.129,1.129,0,0,0-.781-.094.848.848,0,0,0-.594.469.948.948,0,0,0-.062.75l2.563,8.625,4.125-.5A2.481,2.481,0,0,1-1-13.75l1-2.625Zm3.188,5.625a.886.886,0,0,0-.875.625L.813-13v.125a.055.055,0,0,1-.062.063,2.98,2.98,0,0,1,1.875.688.127.127,0,0,1,.031-.094l.031-.031.438-1.062v-.062l.5-1.375.5-1.25a.863.863,0,0,0,.031-.75,1.076,1.076,0,0,0-.531-.562A1.385,1.385,0,0,0,3.188-17.375ZM7-16a.87.87,0,0,0-.375.063,1.226,1.226,0,0,0-.562.563v.063A.055.055,0,0,1,6-15.25L5-12.625q-.438,1,.5,1.375a1.038,1.038,0,0,0,.75-.031,1.054,1.054,0,0,0,.563-.594l1.125-2.75A.87.87,0,0,0,8-15H8a.928.928,0,0,0-.625-.937A1.18,1.18,0,0,0,7-16ZM.5-10.875a.18.18,0,0,1-.125.063L-6-10l-.062.063L-6.125-10a2.621,2.621,0,0,0-.75.313,2.258,2.258,0,0,0-1.062,1.75A3.868,3.868,0,0,0-7.812-6l.75,2.5A4.942,4.942,0,0,0-5.25-.969,4.921,4.921,0,0,0-2.25,0H3A4.815,4.815,0,0,0,6.531-1.469,4.815,4.815,0,0,0,8-5v-5.125a2.74,2.74,0,0,1-3.25.688,2.746,2.746,0,0,1-1.062-.75,2.593,2.593,0,0,1-.375,1.75A3.273,3.273,0,0,1,1.5-7.062L1.438-7l-3.687.938.25.5a.831.831,0,0,1,.188.5.956.956,0,0,1-.312.688,1.023,1.023,0,0,1-.75.313.964.964,0,0,1-.875-.562L-4.625-6.25a1.109,1.109,0,0,1-.125-.5A.886.886,0,0,1-4-7.687L.875-8.937a1.5,1.5,0,0,0,.75-.562.893.893,0,0,0,.031-.625.962.962,0,0,0-.437-.594A1,1,0,0,0,.5-10.875Z" transform="translate(10.028 26)" fill="#2c2d30"/>
</svg>
