<svg xmlns="http://www.w3.org/2000/svg" width="198" height="198" viewBox="0 0 198 198">
  <g id="bubble-cloud-recording" transform="translate(58 -4)">
    <g id="Group_119" data-name="Group 119" transform="translate(-58 4)">
      <rect id="Rectangle-path" width="198" height="198" rx="24" fill="rgba(0,170,245,0.1)"/>
      <path id="Shape" d="M53.46,99H45.539V90.887A41.607,41.607,0,0,1,8.113,53.46H0V45.539H8.113A41.607,41.607,0,0,1,45.539,8.113V0H53.46V8.113A41.607,41.607,0,0,1,90.887,45.539H99V53.46H90.887A41.607,41.607,0,0,1,53.46,90.887V99Zm0-21.778V82.91A33.436,33.436,0,0,0,82.91,53.46H77.222V45.539H82.91A33.444,33.444,0,0,0,53.46,16.09v5.688H45.539V16.09a33.452,33.452,0,0,0-29.45,29.45h5.688V53.46H16.1A33.434,33.434,0,0,0,45.539,82.91V77.227Z" transform="translate(52.105 52.105)" fill="#00aaf5"/>
    </g>
  </g>
</svg>
