<svg xmlns="http://www.w3.org/2000/svg" width="189.388" height="189.389" viewBox="0 0 189.388 189.389">
  <g id="Group_125" data-name="Group 125" transform="translate(-1195.306 -478.306)">
    <g id="Group_123" data-name="Group 123">
      <g id="Group_124" data-name="Group 124">
        <rect id="Rectangle-path" width="189.388" height="189.388" rx="24" transform="translate(1195.306 478.306)" fill="#fdecdc"/>
      </g>
    </g>
    <g id="Group_122" data-name="Group 122">
      <path id="Path" d="M59.519,0A2.434,2.434,0,0,0,58.8.144L3.594,18.546a2.261,2.261,0,0,0,0,4.313l12.651,4.313c-.126.162-.306.27-.431.431-2.75,3.486-4.169,8.285-4.744,15.239a6.05,6.05,0,0,0,0,10.926C9.237,69.349,0,74.579,0,75.909c0,.683,7.188,4.6,8.914,4.6,2.66,0,9.057-4.457,9.057-14.233a72.517,72.517,0,0,0-1.15-13.227,5.617,5.617,0,0,0-.288-9.632c.521-6.326,1.725-9.992,3.594-12.364,2.156-2.75,5.661-4.421,10.926-6.613.252-.108.647-.288,1.006-.431.072-.018.072-.126.144-.144.917-.359,1.869-.719,2.588-1.006,3.45-1.42,6.29-2.426,8.914-3.45.791-.306,1.276-.575,2.013-.863C48.09,17.629,49.8,17,51.468,16.389c.629-.234,1.024-.377,1.581-.575,3.792-1.366,5.409-1.851,5.463-1.869a2.728,2.728,0,1,1,1.725,5.176c-.108.036-6.487,1.959-23.29,8.914-1.078.449-2.174.755-3.163,1.15-1.995.791-3.648,1.528-5.032,2.157L58.8,41.261a1.869,1.869,0,0,0,1.438,0l55.206-18.4a2.261,2.261,0,0,0,0-4.313L60.238.144A2.434,2.434,0,0,0,59.519,0Z" transform="translate(1230.481 535.429)" fill="#a8703b"/>
    </g>
    <path id="Path-2" data-name="Path" d="M73.321,0,38.673,11.5a6.788,6.788,0,0,1-2.156.288A6.788,6.788,0,0,1,34.36,11.5L.863.288A18.645,18.645,0,0,0,0,6.9c2.192,1.258,4.313,3.81,4.313,8.195A8.736,8.736,0,0,1,1.725,20.99c4.96,5.769,18.654,9.92,34.791,9.92,20.325,0,36.8-6.559,36.8-14.664Z" transform="translate(1253.483 571.083)" fill="#a8703b"/>
  </g>
</svg>
