<svg xmlns="http://www.w3.org/2000/svg" width="29.666" height="27.45" viewBox="0 0 29.666 27.45">
  <g id="menu_discussions" transform="translate(-0.667 1.333)">
    <g id="discussions" transform="translate(29) rotate(180)">
      <g id="Shape" transform="rotate(180)" fill="#8369c0" stroke-miterlimit="10">
        <path d="M -27.66666984558105 24.87067985534668 L -27.66666984558105 23.625 L -27.66666984558105 4.5 C -27.66666984558105 1.651090025901794 -25.34890937805176 -0.666670024394989 -22.5 -0.666670024394989 L -4.5 -0.666670024394989 C -1.651090025901794 -0.666670024394989 0.666670024394989 1.651090025901794 0.666670024394989 4.5 L 0.666670024394989 15.75 C 0.666670024394989 18.59890937805176 -1.651090025901794 20.91666984558105 -4.5 20.91666984558105 L -21.73565483093262 20.91666984558105 L -26.63019943237305 24.17970085144043 L -27.66666984558105 24.87067985534668 Z" stroke="none"/>
        <path d="M -22.5 0 C -24.98624992370605 0 -27 2.013750076293945 -27 4.5 L -27 23.625 L -21.9375 20.25 L -4.5 20.25 C -2.013750076293945 20.25 0 18.23624992370605 0 15.75 L 0 4.5 C 0 2.013750076293945 -2.013750076293945 0 -4.5 0 L -22.5 0 M -22.5 -1.333330154418945 L -4.5 -1.333330154418945 C -1.283489227294922 -1.333330154418945 1.333330154418945 1.283489227294922 1.333330154418945 4.5 L 1.333330154418945 15.75 C 1.333330154418945 18.96651077270508 -1.283489227294922 21.58333015441895 -4.5 21.58333015441895 L -21.53379440307617 21.58333015441895 L -26.26040077209473 24.73439979553223 L -28.33333015441895 26.11635971069336 L -28.33333015441895 23.625 L -28.33333015441895 4.5 C -28.33333015441895 1.283489227294922 -25.71651077270508 -1.333330154418945 -22.5 -1.333330154418945 Z" stroke="none" fill="#2c2245"/>
      </g>
      <path id="Combined_Shape" data-name="Combined Shape" d="M-3.351,20.1A4.5,4.5,0,0,0,0,15.75V4.5A4.505,4.505,0,0,0-4.5,0h-18a4.507,4.507,0,0,0-4.49,4.2,4.326,4.326,0,0,1,4.07-2.872H-5.651A4.323,4.323,0,0,1-1.333,5.651V16.445A4.3,4.3,0,0,1-3.352,20.1Z" transform="rotate(180)" fill="#735ea7"/>
      <g id="Path" transform="translate(12.375 -13.5) rotate(180)" fill="none" stroke-miterlimit="10">
        <path d="M-10.125,1.125H0V0H-10.125Z" stroke="none"/>
        <path d="M 0 1.125 L -10.125 1.125 L -10.125 0 L 0 0 L 0 1.125 Z" stroke="none" fill="#eee6ff"/>
      </g>
      <g id="Path-2" data-name="Path" transform="translate(4.5 -9) rotate(180)" fill="none" stroke-miterlimit="10">
        <path d="M-18,1.125H0V0H-18Z" stroke="none"/>
        <path d="M 0 1.125 L -18 1.125 L -18 0 L 0 0 L 0 1.125 Z" stroke="none" fill="#eee6ff"/>
      </g>
      <g id="Path-3" data-name="Path" transform="translate(4.5 -4.5) rotate(180)" fill="none" stroke-miterlimit="10">
        <path d="M-18,1.125H0V0H-18Z" stroke="none"/>
        <path d="M 0 1.125 L -18 1.125 L -18 0 L 0 0 L 0 1.125 Z" stroke="none" fill="#eee6ff"/>
      </g>
    </g>
  </g>
</svg>
