<svg id="menu_articles" xmlns="http://www.w3.org/2000/svg" width="28" height="28" viewBox="0 0 28 28">
  <g id="Rectangle_32" data-name="Rectangle 32" fill="#3f83e9" stroke="#121e30" stroke-miterlimit="10" stroke-width="1.089">
    <rect width="28" height="28" rx="4.667" stroke="none"/>
    <rect x="0.544" y="0.544" width="26.911" height="26.911" rx="4.122" fill="none"/>
  </g>
  <g id="Rectangle_32-2" data-name="Rectangle 32" fill="#fff" stroke="#121e30" stroke-miterlimit="10" stroke-width="1.089">
    <path d="M4.667,0H23.333A4.667,4.667,0,0,1,28,4.667v7a0,0,0,0,1,0,0H0a0,0,0,0,1,0,0v-7A4.667,4.667,0,0,1,4.667,0Z" stroke="none"/>
    <path d="M4.667.544H23.333a4.122,4.122,0,0,1,4.122,4.122v5.911a.544.544,0,0,1-.544.544H1.089a.544.544,0,0,1-.544-.544V4.667A4.122,4.122,0,0,1,4.667.544Z" fill="none"/>
  </g>
  <circle id="Oval_12" data-name="Oval 12" cx="2.333" cy="2.333" r="2.333" transform="translate(4.03 3.5)" fill="#3f83e9" stroke="#121e30" stroke-miterlimit="10" stroke-width="0.778"/>
  <path id="Path_8" data-name="Path 8" d="M0,1.167H10.182" transform="translate(12.727 3.5)" fill="none" stroke="#121e30" stroke-linecap="round" stroke-linejoin="round" stroke-miterlimit="10" stroke-width="1.089"/>
  <path id="Path_8_Copy" data-name="Path 8 Copy" d="M0,.292H10.182" transform="translate(12.727 7)" fill="none" stroke="#121e30" stroke-linecap="round" stroke-linejoin="round" stroke-miterlimit="10" stroke-width="1.089"/>
  <rect id="Rectangle_33" data-name="Rectangle 33" width="7.848" height="5.833" rx="1.167" transform="translate(3.818 15.167)" fill="#2b67c8"/>
  <rect id="Rectangle_33_Copy" data-name="Rectangle 33 Copy" width="9.864" height="1.167" rx="0.583" transform="translate(14 16.333)" fill="#4db3f7"/>
  <rect id="Rectangle_33_Copy_3" data-name="Rectangle 33 Copy 3" width="9.864" height="1.167" rx="0.583" transform="translate(14 19.833)" fill="#4db3f7"/>
  <rect id="Rectangle_33_Copy_2" data-name="Rectangle 33 Copy 2" width="20.364" height="1.167" rx="0.583" transform="translate(3.818 23.333)" fill="#4db3f7"/>
</svg>
