<svg xmlns="http://www.w3.org/2000/svg" xmlns:xlink="http://www.w3.org/1999/xlink" width="72" height="72" viewBox="0 0 72 72">
  <defs>
    <clipPath id="clip-path">
      <circle id="path-1" cx="36" cy="36" r="36" transform="translate(0 0)" fill="none"/>
    </clipPath>
  </defs>
  <g id="no_articles" transform="translate(-73)">
    <g id="Group_6" data-name="Group 6" transform="translate(73)" opacity="0.5">
      <g id="Group-6-Copy_Clipped" data-name="Group-6-Copy Clipped">
        <circle id="path-1-2" data-name="path-1" cx="36" cy="36" r="36" transform="translate(0 0)" fill="none"/>
        <g id="Group-6-Copy_Clipped-2" data-name="Group-6-Copy Clipped" clip-path="url(#clip-path)">
          <g id="Group-6-Copy" transform="translate(-6 -2.4)">
            <g id="Group" transform="translate(39.544 0.707) rotate(42)">
              <rect id="Rectangle-4" width="7.837" height="43.863" rx="3.918" transform="translate(13.061 0.585)" fill="#f5f5f5"/>
              <path id="Combined-Shape" d="M7.837,26.523a3.731,3.731,0,0,0-3.918-3.509A3.731,3.731,0,0,0,0,26.523V0A3.731,3.731,0,0,0,3.918,3.509,3.731,3.731,0,0,0,7.837,0Z" transform="translate(20.245 6.915)" fill="#f5f5f5"/>
              <path id="Combined-Shape-Copy-2" d="M7.657,12.282A3.9,3.9,0,0,0,3.918,9.825,3.9,3.9,0,0,0,.179,12.282,3.172,3.172,0,0,1,0,11.229V.234Q0,.116.009,0a3.765,3.765,0,0,0,3.91,3.275A3.765,3.765,0,0,0,7.828,0q.009.116.009.234V11.229A3.172,3.172,0,0,1,7.657,12.282Z" transform="translate(6.531 19.3)" fill="#f5f5f5"/>
              <path id="Combined-Shape-Copy" d="M7.657,12.282A3.9,3.9,0,0,0,3.918,9.825,3.9,3.9,0,0,0,.179,12.282,3.172,3.172,0,0,1,0,11.229V.234Q0,.116.009,0a3.765,3.765,0,0,0,3.91,3.275A3.765,3.765,0,0,0,7.828,0q.009.116.009.234V11.229A3.172,3.172,0,0,1,7.657,12.282Z" transform="translate(33.307 19.884)" fill="#f5f5f5"/>
              <rect id="Rectangle-4-Copy-2" width="7.837" height="35.675" rx="3.918" transform="translate(26.776 4.094)" fill="#f5f5f5"/>
              <rect id="Rectangle-4-Copy-6" width="7.837" height="26.318" rx="3.918" transform="translate(0 7.018)" fill="#f5f5f5"/>
              <rect id="Rectangle-4-Copy-5" width="7.837" height="14.621" rx="3.918" transform="translate(26.776 42.693)" fill="#f5f5f5"/>
              <rect id="Rectangle-4-Copy-4" width="7.837" height="43.863" rx="3.918" transform="translate(39.837 0.585)" fill="#f5f5f5"/>
              <ellipse id="Oval-3" cx="1.633" cy="1.755" rx="1.633" ry="1.755" transform="translate(35.266 2.924)" fill="none" stroke="#f5f5f5" stroke-miterlimit="10" stroke-width="2.571"/>
              <ellipse id="Oval-3-Copy" cx="1.633" cy="1.755" rx="1.633" ry="1.755" transform="translate(22.204 40.939)" fill="none" stroke="#f5f5f5" stroke-miterlimit="10" stroke-width="2.571"/>
              <g id="Group-5" transform="translate(30.694)">
                <path id="Path-2" d="M2.395,0,0,2.681" fill="none" stroke="#f5f5f5" stroke-miterlimit="10" stroke-width="2.571"/>
                <path id="Path-2-Copy" d="M-2.395,0,0,2.681" transform="translate(2.395)" fill="none" stroke="#f5f5f5" stroke-miterlimit="10" stroke-width="2.571"/>
              </g>
              <g id="Group-5-Copy-2" transform="translate(5.878 39.769)">
                <path id="Path-2-2" data-name="Path-2" d="M2.395,0,0,2.681" fill="none" stroke="#f5f5f5" stroke-miterlimit="10" stroke-width="2.571"/>
                <path id="Path-2-Copy-2" data-name="Path-2-Copy" d="M-2.395,0,0,2.681" transform="translate(2.395)" fill="none" stroke="#f5f5f5" stroke-miterlimit="10" stroke-width="2.571"/>
              </g>
              <g id="Group-5-Copy" transform="translate(39.837 47.372)">
                <path id="Path-2-3" data-name="Path-2" d="M2.395,0,0,2.681" fill="none" stroke="#f5f5f5" stroke-miterlimit="10" stroke-width="2.571"/>
                <path id="Path-2-Copy-3" data-name="Path-2-Copy" d="M-2.395,0,0,2.681" transform="translate(2.395)" fill="none" stroke="#f5f5f5" stroke-miterlimit="10" stroke-width="2.571"/>
              </g>
            </g>
          </g>
        </g>
      </g>
      <g id="articles" transform="translate(16.8 16.8)">
        <g id="Rectangle_32" data-name="Rectangle 32" fill="#3784fe" stroke="#121e30" stroke-miterlimit="10" stroke-width="1.493">
          <rect width="38.4" height="38.4" rx="6.4" stroke="none"/>
          <rect x="0.747" y="0.747" width="36.907" height="36.907" rx="5.653" fill="none"/>
        </g>
        <g id="Rectangle_32-2" data-name="Rectangle 32" fill="#fff" stroke="#121e30" stroke-miterlimit="10" stroke-width="1.493">
          <path d="M6.4,0H32a6.4,6.4,0,0,1,6.4,6.4V16a0,0,0,0,1,0,0H0a0,0,0,0,1,0,0V6.4A6.4,6.4,0,0,1,6.4,0Z" stroke="none"/>
          <path d="M6.4.747H32A5.653,5.653,0,0,1,37.653,6.4v8.107a.747.747,0,0,1-.747.747H1.493a.747.747,0,0,1-.747-.747V6.4A5.653,5.653,0,0,1,6.4.747Z" fill="none"/>
        </g>
        <circle id="Oval_12" data-name="Oval 12" cx="3.2" cy="3.2" r="3.2" transform="translate(5.527 4.8)" fill="#3784fe" stroke="#121e30" stroke-miterlimit="10" stroke-width="1.067"/>
        <path id="Path_8" data-name="Path 8" d="M0,1.6H13.964" transform="translate(17.455 4.8)" fill="none" stroke="#121e30" stroke-linecap="round" stroke-linejoin="round" stroke-miterlimit="10" stroke-width="1.493"/>
        <path id="Path_8_Copy" data-name="Path 8 Copy" d="M0,.4H13.964" transform="translate(17.455 9.6)" fill="none" stroke="#121e30" stroke-linecap="round" stroke-linejoin="round" stroke-miterlimit="10" stroke-width="1.493"/>
        <rect id="Rectangle_33" data-name="Rectangle 33" width="10.764" height="8" rx="1.6" transform="translate(5.236 20.8)" fill="#2b67c8"/>
        <rect id="Rectangle_33_Copy" data-name="Rectangle 33 Copy" width="13.527" height="1.6" rx="0.8" transform="translate(19.2 22.4)" fill="#4db3f7"/>
        <rect id="Rectangle_33_Copy_3" data-name="Rectangle 33 Copy 3" width="13.527" height="1.6" rx="0.8" transform="translate(19.2 27.2)" fill="#4db3f7"/>
        <rect id="Rectangle_33_Copy_2" data-name="Rectangle 33 Copy 2" width="27.927" height="1.6" rx="0.8" transform="translate(5.236 32)" fill="#4db3f7"/>
      </g>
    </g>
  </g>
</svg>
