<svg xmlns="http://www.w3.org/2000/svg" xmlns:xlink="http://www.w3.org/1999/xlink" width="72" height="72" viewBox="0 0 72 72">
  <defs>
    <clipPath id="clip-path">
      <circle id="path-1" cx="36" cy="36" r="36" transform="translate(0 0)" fill="none"/>
    </clipPath>
  </defs>
  <g id="no_scholarships" transform="translate(-168)">
    <g id="Group_6" data-name="Group 6" transform="translate(168)" opacity="0.5">
      <g id="Group-6-Copy_Clipped" data-name="Group-6-Copy Clipped">
        <circle id="path-1-2" data-name="path-1" cx="36" cy="36" r="36" transform="translate(0 0)" fill="none"/>
        <g id="Group-6-Copy_Clipped-2" data-name="Group-6-Copy Clipped" clip-path="url(#clip-path)">
          <g id="Group-6-Copy" transform="translate(-6 -2.4)">
            <g id="Group" transform="translate(39.544 0.707) rotate(42)">
              <rect id="Rectangle-4" width="7.837" height="43.863" rx="3.918" transform="translate(13.061 0.585)" fill="#f5f5f5"/>
              <path id="Combined-Shape" d="M7.837,26.523a3.731,3.731,0,0,0-3.918-3.509A3.731,3.731,0,0,0,0,26.523V0A3.731,3.731,0,0,0,3.918,3.509,3.731,3.731,0,0,0,7.837,0Z" transform="translate(20.245 6.915)" fill="#f5f5f5"/>
              <path id="Combined-Shape-Copy-2" d="M7.657,12.282A3.9,3.9,0,0,0,3.918,9.825,3.9,3.9,0,0,0,.179,12.282,3.172,3.172,0,0,1,0,11.229V.234Q0,.116.009,0a3.765,3.765,0,0,0,3.91,3.275A3.765,3.765,0,0,0,7.828,0q.009.116.009.234V11.229A3.172,3.172,0,0,1,7.657,12.282Z" transform="translate(6.531 19.3)" fill="#f5f5f5"/>
              <path id="Combined-Shape-Copy" d="M7.657,12.282A3.9,3.9,0,0,0,3.918,9.825,3.9,3.9,0,0,0,.179,12.282,3.172,3.172,0,0,1,0,11.229V.234Q0,.116.009,0a3.765,3.765,0,0,0,3.91,3.275A3.765,3.765,0,0,0,7.828,0q.009.116.009.234V11.229A3.172,3.172,0,0,1,7.657,12.282Z" transform="translate(33.307 19.884)" fill="#f5f5f5"/>
              <rect id="Rectangle-4-Copy-2" width="7.837" height="35.675" rx="3.918" transform="translate(26.776 4.094)" fill="#f5f5f5"/>
              <rect id="Rectangle-4-Copy-6" width="7.837" height="26.318" rx="3.918" transform="translate(0 7.018)" fill="#f5f5f5"/>
              <rect id="Rectangle-4-Copy-5" width="7.837" height="14.621" rx="3.918" transform="translate(26.776 42.693)" fill="#f5f5f5"/>
              <rect id="Rectangle-4-Copy-4" width="7.837" height="43.863" rx="3.918" transform="translate(39.837 0.585)" fill="#f5f5f5"/>
              <ellipse id="Oval-3" cx="1.633" cy="1.755" rx="1.633" ry="1.755" transform="translate(35.266 2.924)" fill="none" stroke="#f5f5f5" stroke-miterlimit="10" stroke-width="2.571"/>
              <ellipse id="Oval-3-Copy" cx="1.633" cy="1.755" rx="1.633" ry="1.755" transform="translate(22.204 40.939)" fill="none" stroke="#f5f5f5" stroke-miterlimit="10" stroke-width="2.571"/>
              <g id="Group-5" transform="translate(30.694)">
                <path id="Path-2" d="M2.395,0,0,2.681" fill="none" stroke="#f5f5f5" stroke-miterlimit="10" stroke-width="2.571"/>
                <path id="Path-2-Copy" d="M-2.395,0,0,2.681" transform="translate(2.395)" fill="none" stroke="#f5f5f5" stroke-miterlimit="10" stroke-width="2.571"/>
              </g>
              <g id="Group-5-Copy-2" transform="translate(5.878 39.769)">
                <path id="Path-2-2" data-name="Path-2" d="M2.395,0,0,2.681" fill="none" stroke="#f5f5f5" stroke-miterlimit="10" stroke-width="2.571"/>
                <path id="Path-2-Copy-2" data-name="Path-2-Copy" d="M-2.395,0,0,2.681" transform="translate(2.395)" fill="none" stroke="#f5f5f5" stroke-miterlimit="10" stroke-width="2.571"/>
              </g>
              <g id="Group-5-Copy" transform="translate(39.837 47.372)">
                <path id="Path-2-3" data-name="Path-2" d="M2.395,0,0,2.681" fill="none" stroke="#f5f5f5" stroke-miterlimit="10" stroke-width="2.571"/>
                <path id="Path-2-Copy-3" data-name="Path-2-Copy" d="M-2.395,0,0,2.681" transform="translate(2.395)" fill="none" stroke="#f5f5f5" stroke-miterlimit="10" stroke-width="2.571"/>
              </g>
            </g>
          </g>
        </g>
      </g>
      <g id="icons8-trophy" transform="translate(20 17)">
        <path id="Shape" d="M9.968,17.5a17.791,17.791,0,0,1-9.4-9.8c-1.1-3-.4-4.9.4-6A4.266,4.266,0,0,1,4.468,0c3.4,0,3.6,2.3,3.6,3a2.8,2.8,0,0,1-2.9,3,2.094,2.094,0,0,1-2.1-2h1a1.029,1.029,0,0,0,1.1,1,1.79,1.79,0,0,0,1.9-2c0-.7-.3-2-2.6-2a3.115,3.115,0,0,0-2.7,1.3c-.6.9-1.1,2.5-.2,5.1,2.3,6.5,8.7,9.2,8.7,9.2Z" transform="translate(0.932)" fill="#f5c276"/>
        <path id="Shape-2" data-name="Shape" d="M.3,17.5l-.3-1,.2.5L0,16.5c.1,0,6.5-2.7,8.7-9.2.9-2.6.4-4.2-.3-5.1A2.984,2.984,0,0,0,5.8,1C3.5,1,3.2,2.3,3.2,3A1.79,1.79,0,0,0,5.1,5,1.029,1.029,0,0,0,6.2,4h1A2.094,2.094,0,0,1,5.1,6,2.8,2.8,0,0,1,2.2,3c0-.7.3-3,3.6-3A4.1,4.1,0,0,1,9.3,1.8c.8,1.1,1.4,3,.4,6C7.2,14.7.4,17.5.3,17.5Z" transform="translate(20.8)" fill="#f5c276"/>
        <path id="Shape-3" data-name="Shape" d="M1.7,6.3H.3L0,0H2Z" transform="translate(15 22)" fill="#f5c276"/>
        <g id="Group-2" data-name="Group" transform="translate(12 26)">
          <path id="Shape-4" data-name="Shape" d="M0,3.9V2.6L3.5,0,7,2.6V3.9Z" transform="translate(0.5 1.6)" fill="#ffeea3"/>
          <path id="Shape-5" data-name="Shape" d="M8,5.1H0v-2L4,0,8,3.1v2ZM4,1.3H4L1,3.6v.5H7V3.6L4,1.3Z" transform="translate(0 0.9)" fill="#f5c276"/>
        </g>
        <g id="Group-3" data-name="Group" transform="translate(8 1)">
          <path id="Shape-6" data-name="Shape" d="M7.5,21C2.1,21,.1,10.2,0,0H15C14.9,10.2,12.9,21,7.5,21Z" transform="translate(0.5 0.5)" fill="#ffeea3"/>
          <path id="Shape-7" data-name="Shape" d="M7.5,21C2.1,21,.1,10.2,0,0H15C14.9,10.2,12.9,21,7.5,21Z" transform="translate(0.5 0.5)" fill="#ffeea3"/>
          <path id="Shape-8" data-name="Shape" d="M8,22C.577,22,0,5.161,0,0H16C16,5.162,15.42,22,8,22ZM1,1A52.935,52.935,0,0,0,2.662,14.525,14.19,14.19,0,0,0,4.811,19.2,4.021,4.021,0,0,0,8,21a4.02,4.02,0,0,0,3.189-1.8,14.193,14.193,0,0,0,2.149-4.672A52.929,52.929,0,0,0,15,1Z" fill="#f5c276"/>
        </g>
        <g id="Group-4" data-name="Group" transform="translate(9 31)">
          <rect id="Rectangle-path" width="13" height="6" transform="translate(0.5 0.5)" fill="#b08159"/>
          <path id="Shape-9" data-name="Shape" d="M14,7H0V0H14V7ZM1,1V6H13V1Z" fill="#704e34"/>
        </g>
        <rect id="Rectangle-path-2" data-name="Rectangle-path" width="8" height="1" transform="translate(12 34)" fill="#ffeea3"/>
        <path id="Shape-10" data-name="Shape" d="M9,1H1L0,0H9Z" transform="translate(8 5)" fill="#f5c276"/>
        <path id="Shape-11" data-name="Shape" d="M0,0V1H3L4,0Z" transform="translate(20 5)" fill="#f5c276"/>
      </g>
    </g>
  </g>
</svg>
