<svg xmlns="http://www.w3.org/2000/svg" xmlns:xlink="http://www.w3.org/1999/xlink" width="72" height="72" viewBox="0 0 72 72">
  <defs>
    <clipPath id="clip-path">
      <circle id="path-1" cx="36" cy="36" r="36" transform="translate(0 0)" fill="none"/>
    </clipPath>
  </defs>
  <g id="no_videos" transform="translate(-91)">
    <g id="Group_6" data-name="Group 6" transform="translate(91)" opacity="0.5">
      <g id="Group-6-Copy_Clipped" data-name="Group-6-Copy Clipped">
        <circle id="path-1-2" data-name="path-1" cx="36" cy="36" r="36" transform="translate(0 0)" fill="none"/>
        <g id="Group-6-Copy_Clipped-2" data-name="Group-6-Copy Clipped" clip-path="url(#clip-path)">
          <g id="Group-6-Copy" transform="translate(-6 -2.4)">
            <g id="Group" transform="translate(39.544 0.707) rotate(42)">
              <rect id="Rectangle-4" width="7.837" height="43.863" rx="3.918" transform="translate(13.061 0.585)" fill="#f5f5f5"/>
              <path id="Combined-Shape" d="M7.837,26.523a3.731,3.731,0,0,0-3.918-3.509A3.731,3.731,0,0,0,0,26.523V0A3.731,3.731,0,0,0,3.918,3.509,3.731,3.731,0,0,0,7.837,0Z" transform="translate(20.245 6.915)" fill="#f5f5f5"/>
              <path id="Combined-Shape-Copy-2" d="M7.657,12.282A3.9,3.9,0,0,0,3.918,9.825,3.9,3.9,0,0,0,.179,12.282,3.172,3.172,0,0,1,0,11.229V.234Q0,.116.009,0a3.765,3.765,0,0,0,3.91,3.275A3.765,3.765,0,0,0,7.828,0q.009.116.009.234V11.229A3.172,3.172,0,0,1,7.657,12.282Z" transform="translate(6.531 19.3)" fill="#f5f5f5"/>
              <path id="Combined-Shape-Copy" d="M7.657,12.282A3.9,3.9,0,0,0,3.918,9.825,3.9,3.9,0,0,0,.179,12.282,3.172,3.172,0,0,1,0,11.229V.234Q0,.116.009,0a3.765,3.765,0,0,0,3.91,3.275A3.765,3.765,0,0,0,7.828,0q.009.116.009.234V11.229A3.172,3.172,0,0,1,7.657,12.282Z" transform="translate(33.307 19.884)" fill="#f5f5f5"/>
              <rect id="Rectangle-4-Copy-2" width="7.837" height="35.675" rx="3.918" transform="translate(26.776 4.094)" fill="#f5f5f5"/>
              <rect id="Rectangle-4-Copy-6" width="7.837" height="26.318" rx="3.918" transform="translate(0 7.018)" fill="#f5f5f5"/>
              <rect id="Rectangle-4-Copy-5" width="7.837" height="14.621" rx="3.918" transform="translate(26.776 42.693)" fill="#f5f5f5"/>
              <rect id="Rectangle-4-Copy-4" width="7.837" height="43.863" rx="3.918" transform="translate(39.837 0.585)" fill="#f5f5f5"/>
              <ellipse id="Oval-3" cx="1.633" cy="1.755" rx="1.633" ry="1.755" transform="translate(35.266 2.924)" fill="none" stroke="#f5f5f5" stroke-miterlimit="10" stroke-width="2.571"/>
              <ellipse id="Oval-3-Copy" cx="1.633" cy="1.755" rx="1.633" ry="1.755" transform="translate(22.204 40.939)" fill="none" stroke="#f5f5f5" stroke-miterlimit="10" stroke-width="2.571"/>
              <g id="Group-5" transform="translate(30.694)">
                <path id="Path-2" d="M2.395,0,0,2.681" fill="none" stroke="#f5f5f5" stroke-miterlimit="10" stroke-width="2.571"/>
                <path id="Path-2-Copy" d="M-2.395,0,0,2.681" transform="translate(2.395)" fill="none" stroke="#f5f5f5" stroke-miterlimit="10" stroke-width="2.571"/>
              </g>
              <g id="Group-5-Copy-2" transform="translate(5.878 39.769)">
                <path id="Path-2-2" data-name="Path-2" d="M2.395,0,0,2.681" fill="none" stroke="#f5f5f5" stroke-miterlimit="10" stroke-width="2.571"/>
                <path id="Path-2-Copy-2" data-name="Path-2-Copy" d="M-2.395,0,0,2.681" transform="translate(2.395)" fill="none" stroke="#f5f5f5" stroke-miterlimit="10" stroke-width="2.571"/>
              </g>
              <g id="Group-5-Copy" transform="translate(39.837 47.372)">
                <path id="Path-2-3" data-name="Path-2" d="M2.395,0,0,2.681" fill="none" stroke="#f5f5f5" stroke-miterlimit="10" stroke-width="2.571"/>
                <path id="Path-2-Copy-3" data-name="Path-2-Copy" d="M-2.395,0,0,2.681" transform="translate(2.395)" fill="none" stroke="#f5f5f5" stroke-miterlimit="10" stroke-width="2.571"/>
              </g>
            </g>
          </g>
        </g>
      </g>
      <g id="videos" transform="translate(17 17)">
        <g id="Rectangle_35" data-name="Rectangle 35" fill="#4dc2ac" stroke="#277163" stroke-miterlimit="10" stroke-width="1.49">
          <rect width="38" height="38" rx="7.6" stroke="none"/>
          <rect x="0.745" y="0.745" width="36.51" height="36.51" rx="6.855" fill="none"/>
        </g>
        <rect id="Rectangle_33_Copy_2" data-name="Rectangle 33 Copy 2" width="22.8" height="1.583" rx="0.792" transform="translate(7.6 27.55)" fill="#277163"/>
        <rect id="Rectangle_33_Copy_4" data-name="Rectangle 33 Copy 4" width="22.8" height="1.583" rx="0.792" transform="translate(7.6 31.35)" fill="#277163"/>
        <g id="Rectangle_35-2" data-name="Rectangle 35" transform="translate(7.6 3.8)" fill="#fff" stroke="#277163" stroke-miterlimit="10" stroke-width="1.49">
          <rect width="22.8" height="20.9" rx="3.8" stroke="none"/>
          <rect x="0.745" y="0.745" width="21.31" height="19.41" rx="3.055" fill="none"/>
        </g>
        <g id="Group_15" data-name="Group 15" transform="translate(15.2 9.5)">
          <path id="Shape" d="M9.071,4.06,1.127.084A.776.776,0,0,0,.369.115.764.764,0,0,0,0,.772V8.73a.763.763,0,0,0,.369.655A.772.772,0,0,0,.777,9.5a.788.788,0,0,0,.35-.082l7.947-3.98A.767.767,0,0,0,9.5,4.75.776.776,0,0,0,9.071,4.06Z" fill="#4dc2ac"/>
          <path id="Combined_Shape" data-name="Combined Shape" d="M.777,5.145A.78.78,0,0,1,.368,5.03.77.77,0,0,1,0,4.375V3.639a.778.778,0,0,0,.777.714.787.787,0,0,0,.35-.082L9.073.291A.767.767,0,0,0,9.39,0a.765.765,0,0,1-.317,1.083L1.127,5.063A.776.776,0,0,1,.777,5.145Z" transform="translate(0 4.355)" fill="#42aa97"/>
        </g>
      </g>
    </g>
  </g>
</svg>
