<svg xmlns="http://www.w3.org/2000/svg" width="12.094" height="12.125" viewBox="0 0 12.094 12.125">
  <path id="_" data-name="" d="M12.344-12a1.588,1.588,0,0,1,1.156.5,1.553,1.553,0,0,1,.469,1.141A1.658,1.658,0,0,1,13.5-9.187l-.062.063.313.281-.344.344L5.625-.687,5.5-.594l-.156.031L2.594,0,1.875.125,2-.594l.563-2.75L2.594-3.5l.094-.125L10.5-11.406l.344-.344.313.313.031-.062A1.588,1.588,0,0,1,12.344-12Zm0,1a.675.675,0,0,0-.437.188l-.031.063.875.875.063-.031a.579.579,0,0,0,0-.906A.708.708,0,0,0,12.344-11Zm-1.469.656-.75.719,1.5,1.5.719-.75ZM9.438-8.906,4.188-3.687l.938.188.313.063.063.313.188.938,5.219-5.25ZM3.5-2.812l-.219,1,.531.531,1-.219-.25-1.062Z" transform="translate(-1.875 12)" fill="#2c2d30"/>
</svg>
