<svg xmlns="http://www.w3.org/2000/svg" width="13.75" height="15.125" viewBox="0 0 13.75 15.125">
  <g id="profile_inactive" transform="translate(-1050 -339)">
    <path id="_" data-name="ï¤" d="M8.918,4.605a4.772,4.772,0,0,1,6.789,0A4.631,4.631,0,0,1,17.125,8a4.723,4.723,0,0,1-.58,2.277A4.653,4.653,0,0,1,14.977,12a6.971,6.971,0,0,1,3.051,2.514,6.585,6.585,0,0,1,1.16,3.8H17.813a5.5,5.5,0,0,0-5.5-5.5,5.5,5.5,0,0,0-5.5,5.5H5.438a6.585,6.585,0,0,1,1.16-3.8A6.971,6.971,0,0,1,9.648,12,4.653,4.653,0,0,1,8.08,10.277,4.723,4.723,0,0,1,7.5,8,4.631,4.631,0,0,1,8.918,4.605Zm5.822.967a3.423,3.423,0,0,0-4.855,0A3.31,3.31,0,0,0,8.875,8a3.448,3.448,0,0,0,3.438,3.438A3.448,3.448,0,0,0,15.75,8,3.31,3.31,0,0,0,14.74,5.572Z" transform="translate(1044.563 335.813)" fill="#535b66"/>
  </g>
</svg>
