<svg xmlns="http://www.w3.org/2000/svg" width="11.25" height="15" viewBox="0 0 11.25 15">
  <g id="scholarships_ends_soon" transform="translate(-4.375 -3)">
    <path id="_" data-name="" d="M4.375-15h11.25v1.25h-1.25v2.5a4.2,4.2,0,0,1-.586,2.168A4.552,4.552,0,0,1,12.266-7.5a4.552,4.552,0,0,1,1.523,1.582,4.2,4.2,0,0,1,.586,2.168v2.5h1.25V0H4.375V-1.25h1.25v-2.5a4.2,4.2,0,0,1,.586-2.168A4.552,4.552,0,0,1,7.734-7.5,4.552,4.552,0,0,1,6.211-9.082a4.2,4.2,0,0,1-.586-2.168v-2.5H4.375Zm2.5,1.25v2.5a3.009,3.009,0,0,0,.918,2.207A3.009,3.009,0,0,0,10-8.125a3.009,3.009,0,0,0,2.207-.918,3.009,3.009,0,0,0,.918-2.207v-2.5Zm.7,3.125h4.844a2.587,2.587,0,0,1-.9,1.348A2.382,2.382,0,0,1,10-8.75a2.382,2.382,0,0,1-1.523-.527A2.587,2.587,0,0,1,7.578-10.625Zm4.629,4.668A3.009,3.009,0,0,0,10-6.875a3.009,3.009,0,0,0-2.207.918A3.009,3.009,0,0,0,6.875-3.75v2.5H7.5a2.416,2.416,0,0,1,.723-1.777A2.416,2.416,0,0,1,10-3.75a2.416,2.416,0,0,1,1.777.723A2.416,2.416,0,0,1,12.5-1.25h.625v-2.5A3.009,3.009,0,0,0,12.207-5.957Z" transform="translate(0 18)" fill="#2c2d30"/>
  </g>
</svg>
