<svg xmlns="http://www.w3.org/2000/svg" width="15" height="14.375" viewBox="0 0 15 14.375">
  <g id="scholarships_picked_for_you" transform="translate(-2.5 -3.625)">
    <path id="_" data-name="" d="M7.5-14.375a3,3,0,0,1,2.344,1.523,1.089,1.089,0,0,0,.156.273,1.089,1.089,0,0,0,.156-.273A3,3,0,0,1,12.5-14.375a1.808,1.808,0,0,1,1.328.547,1.808,1.808,0,0,1,.547,1.328,1.769,1.769,0,0,1-.117.625H17.5v3.75h-.625V0H3.125V-8.125H2.5v-3.75H5.742a1.769,1.769,0,0,1-.117-.625,1.808,1.808,0,0,1,.547-1.328A1.808,1.808,0,0,1,7.5-14.375Zm0,1.25a.552.552,0,0,0-.625.625.552.552,0,0,0,.625.625H8.945a.454.454,0,0,1-.078-.117l-.078-.156Q8.086-13.125,7.5-13.125Zm5,0q-.586,0-1.289.977a.452.452,0,0,1-.059.1.212.212,0,0,0-.039.078.245.245,0,0,1-.059.1H12.5a.552.552,0,0,0,.625-.625A.552.552,0,0,0,12.5-13.125Zm-8.75,2.5v1.25H9.375V-10h1.25v.625H16.25v-1.25H3.75Zm.625,2.5V-1.25h5V-7.5h1.25v6.25h5V-8.125Z" transform="translate(0 18)" fill="#2c2d30"/>
  </g>
</svg>
