<svg xmlns="http://www.w3.org/2000/svg" xmlns:xlink="http://www.w3.org/1999/xlink" width="41.637" height="51.217" viewBox="0 0 41.637 51.217">
  <defs>
    <linearGradient id="linear-gradient" x1="0.5" y1="1" x2="0.5" gradientUnits="objectBoundingBox">
      <stop offset="0" stop-color="#00a651"/>
      <stop offset="1" stop-color="#009b79"/>
    </linearGradient>
    <linearGradient id="linear-gradient-2" x1="0.5" y1="1" x2="0.5" y2="0.004" xlink:href="#linear-gradient"/>
    <linearGradient id="linear-gradient-3" x1="0.5" y1="1" x2="0.5" gradientUnits="objectBoundingBox">
      <stop offset="0" stop-color="#fff"/>
      <stop offset="1" stop-color="#fff" stop-opacity="0"/>
    </linearGradient>
    <linearGradient id="linear-gradient-4" x1="0.5" y1="1" x2="0.5" xlink:href="#linear-gradient-3"/>
  </defs>
  <g id="site_icon" transform="translate(-46 -29)">
    <g id="_Group_" transform="translate(60.342 51.537)">
      <g id="_Group_2">
        <circle id="_Path_" cx="1.89" cy="1.89" r="1.89" transform="translate(0.111 0.096)" fill="#bcbec0"/>
      </g>
    </g>
    <path id="_Path_2" d="M0,0V28.683" transform="translate(81.878 34.122)" fill="#d1d3d4" stroke="#d1d3d4" stroke-linecap="round" stroke-linejoin="round" stroke-miterlimit="10" stroke-width="0.5"/>
    <path id="_Path_3" d="M0,0V27.659" transform="translate(83.903 34.122)" fill="#d1d3d4" stroke="#d1d3d4" stroke-linecap="round" stroke-linejoin="round" stroke-miterlimit="10" stroke-width="0.5"/>
    <path id="_Path_4" d="M0,0V27.659" transform="translate(79.805 34.122)" fill="#d1d3d4" stroke="#d1d3d4" stroke-linecap="round" stroke-linejoin="round" stroke-miterlimit="10" stroke-width="0.5"/>
    <g id="_Group_3" transform="translate(46 29)">
      <path id="_Compound_Path_" d="M20.793,37.264a6.052,6.052,0,0,1-6.067-6.023V24.988H13.47a1.335,1.335,0,0,0-1.336,1.328v4.925a6.013,6.013,0,0,1-2.072,4.528,6.108,6.108,0,0,1-4.794,1.444A6.158,6.158,0,0,1,0,31.03V28.58A1.968,1.968,0,0,1,1.588,26.61a1.918,1.918,0,0,1,1.553.419,1.886,1.886,0,0,1,.677,1.448v2.635a2.337,2.337,0,0,0,2.02,2.354,2.28,2.28,0,0,0,.234.012,2.244,2.244,0,0,0,2.25-2.233V23.1A1.9,1.9,0,0,1,10.229,21.2h4.5V6.023a6.067,6.067,0,0,1,12.134,0V31.242A6.052,6.052,0,0,1,20.793,37.264Zm0-33.475a2.244,2.244,0,0,0-2.25,2.234V31.242a2.25,2.25,0,0,0,4.5,0V6.023A2.244,2.244,0,0,0,20.793,3.789Z" transform="translate(14.778 0.223)" fill="url(#linear-gradient)"/>
      <path id="_Path_5" d="M10.228,21.461A1.9,1.9,0,0,0,8.32,23.355v8.029a2.25,2.25,0,0,1-4.5,0V18.594H24.9A1.9,1.9,0,0,0,26.8,16.7V6.164a6.067,6.067,0,0,0-12.134,0V9.12a1.908,1.908,0,0,0,3.816,0V6.164a2.25,2.25,0,0,1,4.5,0V14.8H3.817V6.164a2.25,2.25,0,0,1,4.5,0V9.042a1.908,1.908,0,0,0,3.816,0V6.164A6.013,6.013,0,0,0,9.142.831a6.105,6.105,0,0,0-6.149,0A6.013,6.013,0,0,0,0,6.164v25.22a6.067,6.067,0,0,0,12.134,0V23.355A1.9,1.9,0,0,0,10.228,21.461Z" transform="translate(0.111 0.081)" fill="url(#linear-gradient-2)"/>
    </g>
    <g id="_Group_4" transform="translate(46 29)" opacity="0.25">
      <path id="_Compound_Path_2" d="M6.071,0A6.2,6.2,0,0,0,0,6.319V12.7a36.046,36.046,0,0,1,3.816,2.122v-8.5A2.3,2.3,0,0,1,6.065,3.977,2.3,2.3,0,0,1,8.314,6.319V18.236A32.335,32.335,0,0,1,12.129,22.3V6.319A6.2,6.2,0,0,0,6.071,0Z" transform="translate(29.392)" fill="url(#linear-gradient-3)"/>
      <path id="_Path_6" d="M12.134,6.319V8.948q-1.936.025-3.816.234V6.319a2.3,2.3,0,0,0-2.25-2.343,2.3,2.3,0,0,0-2.25,2.343V9.927A38.2,38.2,0,0,0,0,11.008V6.319A6.2,6.2,0,0,1,6.067,0,6.2,6.2,0,0,1,12.134,6.319Z" fill="url(#linear-gradient-4)"/>
      <path id="_Path_7" d="M12.134,6.319v5.253a37.722,37.722,0,0,0-3.816-1.257v-4a2.3,2.3,0,0,0-2.25-2.343,2.3,2.3,0,0,0-2.25,2.343V9.375Q1.941,9.1,0,9V6.319A6.2,6.2,0,0,1,6.067,0a6.2,6.2,0,0,1,6.067,6.319Z" transform="translate(14.668)" fill="url(#linear-gradient-4)"/>
    </g>
    <g id="_Group_5" transform="translate(46 69.976)">
      <path id="_Path_8" d="M4.786,0A2.016,2.016,0,0,0,3.4.55,2.03,2.03,0,0,0,1.221.17,2.007,2.007,0,0,0,0,2.006V9.46a.635.635,0,0,0,1.27,0V2.006a.749.749,0,0,1,1.5,0V5.2a.635.635,0,0,0,1.27,0v-3.2a.749.749,0,0,1,1.5,0V9.46a.635.635,0,0,0,1.27,0V2.006A2.014,2.014,0,0,0,4.786,0Z" transform="translate(0.048 0.059)" fill="#a7a9ac"/>
      <path id="_Compound_Path_3" d="M3.4,10.092a.634.634,0,0,1-.635-.631V6a2,2,0,0,1-1.5,0V9.461A.635.635,0,0,1,0,9.461V2.007a2.019,2.019,0,0,1,4.038,0V9.461A.634.634,0,0,1,3.4,10.092ZM2.02,1.263a.747.747,0,0,0-.749.743V4.144a.748.748,0,0,0,1.5,0V2.006A.747.747,0,0,0,2.02,1.263Z" transform="translate(11.717 0.07)" fill="#a7a9ac"/>
      <g id="_Group_6" transform="translate(28.617)">
        <path id="_Path_9" d="M2.02,10.091A2.014,2.014,0,0,1,0,8.084a.635.635,0,0,1,1.27,0,.749.749,0,0,0,1.5,0V.631a.635.635,0,0,1,1.27,0V8.085A2.014,2.014,0,0,1,2.02,10.091Z" transform="translate(0.082 0.081)" fill="#a7a9ac"/>
      </g>
      <path id="_Compound_Path_4" d="M.635,10.092A.634.634,0,0,1,0,9.461V2.007a2.02,2.02,0,0,1,4.04,0L4.038,4a.337.337,0,0,0,0,.147A2.021,2.021,0,0,1,2.592,6.065l1.38,2.986a.627.627,0,0,1-.056.641.637.637,0,0,1-1.106-.13L1.271,6.227V9.461A.634.634,0,0,1,.635,10.092ZM2.02,1.264a.747.747,0,0,0-.749.743V4.145a.748.748,0,0,0,1.5,0,.143.143,0,0,1,0-.031.089.089,0,0,0,0-.043A.249.249,0,0,1,2.768,4V2.007A.747.747,0,0,0,2.02,1.264Z" transform="translate(20.287 0.036)" fill="#a7a9ac"/>
      <path id="_Path_10" d="M2.02,0A2.014,2.014,0,0,0,0,2.007a.635.635,0,0,0,1.27,0,.743.743,0,0,1,.365-.668.753.753,0,0,1,.765,0,.743.743,0,0,1,.365.668V4.572H2.02a.631.631,0,1,0,0,1.262h.749V8.2a.743.743,0,0,1-.365.668.753.753,0,0,1-.765,0A.743.743,0,0,1,1.273,8.2.635.635,0,0,0,0,8.2a2.02,2.02,0,0,0,4.04,0V2.006A2,2,0,0,0,3.449.587,2.027,2.027,0,0,0,2.02,0Z" transform="translate(37.371 0.037)" fill="#a7a9ac"/>
    </g>
    <g id="_Group_7" transform="translate(46 69.976)">
      <path id="_Path_11" d="M4.786,0A2.016,2.016,0,0,0,3.4.55,2.03,2.03,0,0,0,1.221.17,2.007,2.007,0,0,0,0,2.006V9.46a.635.635,0,0,0,1.27,0V2.006a.749.749,0,0,1,1.5,0V5.2a.635.635,0,0,0,1.27,0v-3.2a.749.749,0,0,1,1.5,0V9.46a.635.635,0,0,0,1.27,0V2.006A2.014,2.014,0,0,0,4.786,0Z" transform="translate(0.048 0.059)" fill="#a7a9ac"/>
      <path id="_Compound_Path_5" d="M3.4,10.092a.634.634,0,0,1-.635-.631V6a2,2,0,0,1-1.5,0V9.461A.635.635,0,0,1,0,9.461V2.007a2.019,2.019,0,0,1,4.038,0V9.461A.634.634,0,0,1,3.4,10.092ZM2.02,1.263a.747.747,0,0,0-.749.743V4.144a.748.748,0,0,0,1.5,0V2.006A.747.747,0,0,0,2.02,1.263Z" transform="translate(11.717 0.07)" fill="#a7a9ac"/>
      <g id="_Group_8" transform="translate(28.617)">
        <path id="_Path_12" d="M2.02,10.091A2.014,2.014,0,0,1,0,8.084a.635.635,0,0,1,1.27,0,.749.749,0,0,0,1.5,0V.631a.635.635,0,0,1,1.27,0V8.085A2.014,2.014,0,0,1,2.02,10.091Z" transform="translate(0.082 0.081)" fill="#a7a9ac"/>
      </g>
      <path id="_Compound_Path_6" d="M.635,10.092A.634.634,0,0,1,0,9.461V2.007a2.02,2.02,0,0,1,4.04,0L4.038,4a.337.337,0,0,0,0,.147A2.021,2.021,0,0,1,2.592,6.065l1.38,2.986a.627.627,0,0,1-.056.641.637.637,0,0,1-1.106-.13L1.271,6.227V9.461A.634.634,0,0,1,.635,10.092ZM2.02,1.264a.747.747,0,0,0-.749.743V4.145a.748.748,0,0,0,1.5,0,.143.143,0,0,1,0-.031.089.089,0,0,0,0-.043A.249.249,0,0,1,2.768,4V2.007A.747.747,0,0,0,2.02,1.264Z" transform="translate(20.287 0.036)" fill="#a7a9ac"/>
      <path id="_Path_13" d="M2.02,0A2.014,2.014,0,0,0,0,2.007a.635.635,0,0,0,1.27,0,.743.743,0,0,1,.365-.668.753.753,0,0,1,.765,0,.743.743,0,0,1,.365.668V4.572H2.02a.631.631,0,1,0,0,1.262h.749V8.2a.743.743,0,0,1-.365.668.753.753,0,0,1-.765,0A.743.743,0,0,1,1.273,8.2.635.635,0,0,0,0,8.2a2.02,2.02,0,0,0,4.04,0V2.006A2,2,0,0,0,3.449.587,2.027,2.027,0,0,0,2.02,0Z" transform="translate(37.371 0.037)" fill="#a7a9ac"/>
    </g>
  </g>
</svg>
