<svg xmlns="http://www.w3.org/2000/svg" xmlns:xlink="http://www.w3.org/1999/xlink" width="28.75" height="35.445" viewBox="0 0 28.75 35.445">
  <defs>
    <linearGradient id="linear-gradient" x1="0.5" y1="1" x2="0.5" gradientUnits="objectBoundingBox">
      <stop offset="0" stop-color="#00a651"/>
      <stop offset="1" stop-color="#009b79"/>
    </linearGradient>
    <linearGradient id="linear-gradient-2" x1="0.5" y1="1" x2="0.5" y2="0.004" xlink:href="#linear-gradient"/>
    <linearGradient id="linear-gradient-3" x1="0.5" y1="1" x2="0.5" gradientUnits="objectBoundingBox">
      <stop offset="0" stop-color="#fff"/>
      <stop offset="1" stop-color="#fff" stop-opacity="0"/>
    </linearGradient>
    <linearGradient id="linear-gradient-4" x1="0.5" y1="1" x2="0.5" xlink:href="#linear-gradient-3"/>
  </defs>
  <g id="site_logo" transform="translate(-53 -6)">
    <g id="_Group_" transform="translate(62.667 21.037)">
      <g id="_Group_2">
        <circle id="_Path_" cx="1.189" cy="1.189" r="1.189" transform="translate(0.07 0.06)" fill="#bcbec0"/>
      </g>
    </g>
    <path id="_Path_2" d="M0,0V20.407" transform="translate(78.778 9.222)" fill="#d1d3d4" stroke="#d1d3d4" stroke-linecap="round" stroke-linejoin="round" stroke-miterlimit="10" stroke-width="4"/>
    <path id="_Path_3" d="M0,0V19.333" transform="translate(78.778 9.222)" fill="#d1d3d4" stroke="#d1d3d4" stroke-linecap="round" stroke-linejoin="round" stroke-miterlimit="10" stroke-width="4"/>
    <path id="_Path_4" d="M0,0V19.333" transform="translate(76.63 9.222)" fill="#d1d3d4" stroke="#d1d3d4" stroke-linecap="round" stroke-linejoin="round" stroke-miterlimit="10" stroke-width="4"/>
    <g id="_Group_3" transform="translate(53 6)">
      <path id="_Compound_Path_" d="M14.357,26.4a4.233,4.233,0,0,1-4.189-4.266V17.7H9.3a.933.933,0,0,0-.922.94v3.489a4.309,4.309,0,0,1-1.43,3.208,4.135,4.135,0,0,1-3.311,1.022A4.329,4.329,0,0,1,0,21.983V20.247a1.388,1.388,0,0,1,1.1-1.4,1.3,1.3,0,0,1,1.072.3,1.347,1.347,0,0,1,.467,1.026v1.867A1.643,1.643,0,0,0,4.03,23.71a1.534,1.534,0,0,0,1.2-.4,1.6,1.6,0,0,0,.514-1.175V16.363a1.331,1.331,0,0,1,1.318-1.341h3.106V4.267a4.19,4.19,0,1,1,8.378,0V22.134A4.233,4.233,0,0,1,14.357,26.4Zm0-23.715A1.57,1.57,0,0,0,12.8,4.267V22.134a1.554,1.554,0,1,0,3.107,0V4.267A1.57,1.57,0,0,0,14.357,2.685Z" transform="translate(10.204 0.158)" fill="url(#linear-gradient)"/>
      <path id="_Path_5" d="M7.062,15.2a1.33,1.33,0,0,0-1.317,1.342v5.688a1.554,1.554,0,1,1-3.107,0V13.173H17.19a1.33,1.33,0,0,0,1.317-1.342V4.367a4.19,4.19,0,1,0-8.378,0V6.461a1.318,1.318,0,1,0,2.635,0V4.367a1.554,1.554,0,1,1,3.107,0v6.121H2.636V4.367a1.554,1.554,0,1,1,3.107,0V6.406a1.318,1.318,0,1,0,2.635,0V4.367A4.284,4.284,0,0,0,6.312.588a4.123,4.123,0,0,0-4.246,0A4.284,4.284,0,0,0,0,4.367V22.234A4.228,4.228,0,0,0,4.19,26.5a4.228,4.228,0,0,0,4.189-4.267V16.546A1.33,1.33,0,0,0,7.062,15.2Z" transform="translate(0.076 0.057)" fill="url(#linear-gradient-2)"/>
    </g>
    <g id="_Group_4" transform="translate(53 6)" opacity="0.25">
      <path id="_Compound_Path_2" d="M4.192,0A4.207,4.207,0,0,0,0,4.216V8.471A25.154,25.154,0,0,1,2.635,9.887V4.216a1.553,1.553,0,1,1,3.106,0v7.951a21.9,21.9,0,0,1,2.635,2.71V4.216A4.208,4.208,0,0,0,4.192,0Z" transform="translate(20.294)" fill="url(#linear-gradient-3)"/>
      <path id="_Path_6" d="M8.378,4.216V5.971q-1.337.016-2.635.156V4.216a1.553,1.553,0,1,0-3.107,0V6.623A27.1,27.1,0,0,0,0,7.345V4.216a4.189,4.189,0,1,1,8.378,0Z" fill="url(#linear-gradient-4)"/>
      <path id="_Path_7" d="M8.378,4.216V7.722a26.691,26.691,0,0,0-2.635-.838V4.216a1.553,1.553,0,1,0-3.107,0V6.255Q1.341,6.07,0,6.006V4.216a4.189,4.189,0,1,1,8.378,0Z" transform="translate(10.128)" fill="url(#linear-gradient-4)"/>
    </g>
    <g id="_Group_5" transform="translate(53 33.926)">
      <path id="_Path_8" d="M3.3,0a1.349,1.349,0,0,0-.955.4A1.339,1.339,0,0,0,.843.125,1.478,1.478,0,0,0,0,1.472V6.943a.451.451,0,0,0,.439.463.451.451,0,0,0,.439-.463V1.472A.532.532,0,0,1,1.394.927a.532.532,0,0,1,.517.546V3.819a.451.451,0,0,0,.439.463.451.451,0,0,0,.439-.463V1.472a.518.518,0,1,1,1.034,0V6.943a.439.439,0,1,0,.877,0V1.472A1.436,1.436,0,0,0,3.3,0Z" transform="translate(0.033 0.043)" fill="#a7a9ac"/>
      <path id="_Compound_Path_3" d="M2.35,7.407a.452.452,0,0,1-.439-.464V4.406a1.3,1.3,0,0,1-1.033,0V6.944a.452.452,0,0,1-.439.464A.452.452,0,0,1,0,6.944V1.473A1.437,1.437,0,0,1,1.4,0,1.438,1.438,0,0,1,2.788,1.472V6.944A.452.452,0,0,1,2.35,7.407ZM1.4.926a.533.533,0,0,0-.518.546V3.041a.533.533,0,0,0,.518.546.533.533,0,0,0,.517-.546V1.472A.533.533,0,0,0,1.4.926Z" transform="translate(8.091 0.052)" fill="#a7a9ac"/>
      <g id="_Group_6" transform="translate(19.76)">
        <path id="_Path_9" d="M1.395,7.406A1.436,1.436,0,0,1,0,5.933.451.451,0,0,1,.439,5.47a.451.451,0,0,1,.439.463.532.532,0,0,0,.517.546.532.532,0,0,0,.517-.546V.463A.451.451,0,0,1,2.349,0a.451.451,0,0,1,.439.463V5.934A1.436,1.436,0,0,1,1.395,7.406Z" transform="translate(0.057 0.06)" fill="#a7a9ac"/>
      </g>
      <path id="_Compound_Path_4" d="M.438,7.407A.452.452,0,0,1,0,6.944V1.473A1.437,1.437,0,0,1,1.4,0,1.437,1.437,0,0,1,2.79,1.473l0,1.459a.274.274,0,0,0,0,.108,1.456,1.456,0,0,1-1,1.411l.952,2.192a.484.484,0,0,1-.039.47.432.432,0,0,1-.357.194.419.419,0,0,1-.052,0,.441.441,0,0,1-.355-.287L.878,4.57V6.944A.452.452,0,0,1,.438,7.407ZM1.4.927a.533.533,0,0,0-.518.546V3.042a.533.533,0,0,0,.518.546.534.534,0,0,0,.517-.546.113.113,0,0,1,0-.022.07.07,0,0,0,0-.032.214.214,0,0,1,0-.054V1.473A.533.533,0,0,0,1.4.927Z" transform="translate(14.008 0.026)" fill="#a7a9ac"/>
      <path id="_Path_10" d="M1.395,0A1.436,1.436,0,0,0,0,1.473a.451.451,0,0,0,.439.463.451.451,0,0,0,.439-.463.554.554,0,0,1,.252-.49.493.493,0,0,1,.528,0,.554.554,0,0,1,.252.49V3.356H1.395a.464.464,0,0,0,0,.927h.517V6.017a.554.554,0,0,1-.252.49.493.493,0,0,1-.528,0,.554.554,0,0,1-.252-.49A.451.451,0,0,0,.44,5.553.451.451,0,0,0,0,6.017,1.436,1.436,0,0,0,1.4,7.49,1.436,1.436,0,0,0,2.791,6.017V1.472A1.516,1.516,0,0,0,2.382.431,1.358,1.358,0,0,0,1.395,0Z" transform="translate(25.804 0.027)" fill="#a7a9ac"/>
    </g>
    <g id="_Group_7" transform="translate(53 33.926)">
      <path id="_Path_11" d="M3.466,0a1.438,1.438,0,0,0-1,.41A1.439,1.439,0,0,0,.884.126,1.5,1.5,0,0,0,0,1.495V7.048a.465.465,0,0,0,.46.47.465.465,0,0,0,.46-.47V1.495A.542.542,0,1,1,2,1.495V3.877a.46.46,0,1,0,.92,0V1.495a.542.542,0,1,1,1.084,0V7.048a.46.46,0,1,0,.92,0V1.495A1.479,1.479,0,0,0,3.466,0Z" fill="#a7a9ac"/>
      <path id="_Compound_Path_5" d="M2.076,7.519a.436.436,0,0,1-.388-.471V4.473a1.02,1.02,0,0,1-.914,0V7.048a.436.436,0,0,1-.387.471A.436.436,0,0,1,0,7.048V1.5A1.385,1.385,0,0,1,1.233,0,1.386,1.386,0,0,1,2.464,1.495V7.048A.436.436,0,0,1,2.076,7.519ZM1.233.941a.513.513,0,0,0-.457.554V3.087a.513.513,0,0,0,.457.554.513.513,0,0,0,.456-.554V1.495A.513.513,0,0,0,1.233.941Z" transform="translate(8.214)" fill="#a7a9ac"/>
      <g id="_Group_8" transform="translate(19.712)">
        <path id="_Path_12" d="M1.383,7.406A1.43,1.43,0,0,1,0,5.933.45.45,0,0,1,.435,5.47a.45.45,0,0,1,.435.463.53.53,0,0,0,.512.546.53.53,0,0,0,.512-.546V.463A.45.45,0,0,1,2.329,0a.45.45,0,0,1,.435.463V5.934A1.43,1.43,0,0,1,1.383,7.406Z" transform="translate(0.056 0.06)" fill="#a7a9ac"/>
      </g>
      <path id="_Compound_Path_6" d="M.387,7.519A.436.436,0,0,1,0,7.048V1.5A1.385,1.385,0,0,1,1.232,0,1.385,1.385,0,0,1,2.464,1.5l0,1.48a.321.321,0,0,0,0,.11,1.5,1.5,0,0,1-.881,1.433l.841,2.225a.554.554,0,0,1-.033.477.374.374,0,0,1-.316.2.323.323,0,0,1-.045,0,.41.41,0,0,1-.314-.291L.775,4.64V7.048A.436.436,0,0,1,.387,7.519ZM1.232.941A.513.513,0,0,0,.776,1.5V3.088a.513.513,0,0,0,.456.554.514.514,0,0,0,.456-.554.129.129,0,0,1,0-.023.086.086,0,0,0,0-.032.222.222,0,0,1,0-.055V1.5A.513.513,0,0,0,1.232.941Z" transform="translate(13.963)" fill="#a7a9ac"/>
      <path id="_Path_13" d="M1.231,0A1.372,1.372,0,0,0,0,1.479a.431.431,0,0,0,.387.465.431.431,0,0,0,.387-.465A.581.581,0,0,1,1,.987a.392.392,0,0,1,.466,0,.581.581,0,0,1,.223.492v1.89H1.231a.431.431,0,0,0-.387.465.431.431,0,0,0,.387.465h.456V6.04a.581.581,0,0,1-.223.492.392.392,0,0,1-.466,0A.581.581,0,0,1,.776,6.04a.431.431,0,0,0-.387-.465A.431.431,0,0,0,0,6.04,1.372,1.372,0,0,0,1.233,7.519,1.372,1.372,0,0,0,2.464,6.04V1.478A1.642,1.642,0,0,0,2.1.432,1.137,1.137,0,0,0,1.231,0Z" transform="translate(25.462 0)" fill="#a7a9ac"/>
    </g>
  </g>
</svg>
