<svg xmlns="http://www.w3.org/2000/svg" xmlns:xlink="http://www.w3.org/1999/xlink" width="58.491" height="72.997" viewBox="0 0 58.491 72.997">
  <defs>
    <linearGradient id="linear-gradient" x1="0.5" y1="1" x2="0.5" gradientUnits="objectBoundingBox">
      <stop offset="0" stop-color="#00a651"/>
      <stop offset="1" stop-color="#009b79"/>
    </linearGradient>
    <linearGradient id="linear-gradient-2" x1="0.5" y1="1" x2="0.5" y2="0.004" xlink:href="#linear-gradient"/>
    <linearGradient id="linear-gradient-3" x1="0.5" y1="1" x2="0.5" gradientUnits="objectBoundingBox">
      <stop offset="0" stop-color="#fff"/>
      <stop offset="1" stop-color="#fff" stop-opacity="0"/>
    </linearGradient>
    <linearGradient id="linear-gradient-4" x1="0.5" y1="1" x2="0.5" xlink:href="#linear-gradient-3"/>
  </defs>
  <g id="site_icon_2" transform="translate(-714 -73)">
    <g id="_Group_" transform="translate(734 105)">
      <g id="_Group_2">
        <circle id="_Path_" cx="2.372" cy="2.372" r="2.372" transform="translate(0.139 0.12)" fill="#bcbec0"/>
      </g>
    </g>
    <path id="_Path_3" d="M0,0V39" transform="translate(766 80)" fill="#d1d3d4" stroke="#d1d3d4" stroke-linecap="round" stroke-linejoin="round" stroke-miterlimit="10" stroke-width="1"/>
    <path id="_Path_2" d="M0,0V41" transform="translate(764 79)" fill="#d1d3d4" stroke="#d1d3d4" stroke-linecap="round" stroke-linejoin="round" stroke-miterlimit="10" stroke-width="1"/>
    <path id="_Path_4" d="M0,0V39" transform="translate(762 80)" fill="#d1d3d4" stroke="#d1d3d4" stroke-linecap="round" stroke-linejoin="round" stroke-miterlimit="10" stroke-width="1"/>
    <g id="_Group_3" transform="translate(714 73)">
      <path id="_Compound_Path_" d="M29.21,53.091a8.561,8.561,0,0,1-8.523-8.58V35.6H18.923a1.888,1.888,0,0,0-1.877,1.892v7.017a8.62,8.62,0,0,1-2.911,6.451A8.486,8.486,0,0,1,7.4,53.016,8.268,8.268,0,0,1,2.089,50.04,9.164,9.164,0,0,1,0,44.21V40.718a2.8,2.8,0,0,1,2.231-2.806,2.662,2.662,0,0,1,2.18.6,2.7,2.7,0,0,1,.95,2.063v3.754A3.315,3.315,0,0,0,8.2,47.68a3.143,3.143,0,0,0,2.443-.8,3.2,3.2,0,0,0,1.046-2.363V32.907a2.692,2.692,0,0,1,2.68-2.7h6.318V8.581a8.564,8.564,0,0,1,2.5-6.067,8.468,8.468,0,0,1,12.047,0,8.565,8.565,0,0,1,2.5,6.062V44.511A8.561,8.561,0,0,1,29.21,53.091Zm0-47.692a3.174,3.174,0,0,0-3.16,3.181V44.511a3.16,3.16,0,1,0,6.32,0V8.581A3.174,3.174,0,0,0,29.209,5.4Z" transform="translate(20.759 0.317)" fill="url(#linear-gradient)"/>
      <path id="_Path_5" d="M14.367,30.576a2.689,2.689,0,0,0-2.68,2.7V44.713a3.16,3.16,0,1,1-6.32,0V26.491H34.974a2.689,2.689,0,0,0,2.68-2.7V8.782a8.523,8.523,0,1,0-17.045,0v4.211a2.68,2.68,0,1,0,5.36,0V8.782a3.16,3.16,0,1,1,6.32,0V21.091H5.362V8.782a3.16,3.16,0,1,1,6.32,0v4.1a2.68,2.68,0,1,0,5.36,0v-4.1a8.593,8.593,0,0,0-4.2-7.6,8.473,8.473,0,0,0-8.638,0A8.593,8.593,0,0,0,0,8.782V44.713a8.523,8.523,0,1,0,17.045,0V33.274A2.689,2.689,0,0,0,14.367,30.576Z" transform="translate(0.155 0.115)" fill="url(#linear-gradient-2)"/>
    </g>
    <g id="_Group_4" transform="translate(714 73)" opacity="0.25">
      <path id="_Compound_Path_2" d="M8.529,0A8.766,8.766,0,0,0,0,8.973v9.054A50.482,50.482,0,0,1,5.36,21.04V8.973A3.246,3.246,0,0,1,8.519,5.647a3.246,3.246,0,0,1,3.159,3.326v16.92a45.717,45.717,0,0,1,5.36,5.768V8.973A8.767,8.767,0,0,0,8.529,0Z" transform="translate(41.288)" fill="url(#linear-gradient-3)"/>
      <path id="_Path_6" d="M17.045,8.973v3.733q-2.719.035-5.36.332V8.973a3.247,3.247,0,0,0-3.16-3.327,3.247,3.247,0,0,0-3.16,3.327V14.1A53.223,53.223,0,0,0,0,15.63V8.973A8.756,8.756,0,0,1,8.523,0,8.756,8.756,0,0,1,17.045,8.973Z" fill="url(#linear-gradient-4)"/>
      <path id="_Path_7" d="M17.045,8.973v7.459a52.592,52.592,0,0,0-5.36-1.784V8.973a3.247,3.247,0,0,0-3.16-3.327,3.247,3.247,0,0,0-3.16,3.327v4.339Q2.727,12.918,0,12.78V8.973A8.756,8.756,0,0,1,8.523,0a8.756,8.756,0,0,1,8.523,8.973Z" transform="translate(20.605)" fill="url(#linear-gradient-4)"/>
    </g>
    <g id="_Group_5" transform="translate(714 131)">
      <path id="_Path_8" d="M6.7,0A2.753,2.753,0,0,0,4.76.805,2.744,2.744,0,0,0,1.708.248,2.944,2.944,0,0,0,0,2.938V13.852a.907.907,0,0,0,.889.924.907.907,0,0,0,.889-.924V2.938A1.069,1.069,0,0,1,2.824,1.848,1.069,1.069,0,0,1,3.871,2.938V7.619a.889.889,0,1,0,1.777,0V2.938a1.048,1.048,0,1,1,2.094,0V13.852a.889.889,0,1,0,1.777,0V2.938A2.884,2.884,0,0,0,6.7,0Z" transform="translate(0.068 0.087)" fill="#a7a9ac"/>
      <path id="_Compound_Path_3" d="M4.76,14.778a.908.908,0,0,1-.888-.924V8.791a2.685,2.685,0,0,1-2.094,0v5.062a.908.908,0,0,1-.889.924A.908.908,0,0,1,0,13.854V2.939A2.888,2.888,0,0,1,2.826,0,2.888,2.888,0,0,1,5.648,2.938V13.854A.908.908,0,0,1,4.76,14.778ZM2.826,1.849A1.07,1.07,0,0,0,1.778,2.938v3.13A1.07,1.07,0,0,0,2.826,7.157,1.07,1.07,0,0,0,3.873,6.068V2.938A1.07,1.07,0,0,0,2.826,1.849Z" transform="translate(16.391 0.103)" fill="#a7a9ac"/>
      <g id="_Group_6" transform="translate(40.032)">
        <path id="_Path_9" d="M2.826,14.776A2.884,2.884,0,0,1,0,11.837a.907.907,0,0,1,.889-.924.907.907,0,0,1,.889.924,1.069,1.069,0,0,0,1.047,1.089,1.069,1.069,0,0,0,1.047-1.089V.924a.889.889,0,1,1,1.777,0V11.839a2.884,2.884,0,0,1-2.823,2.938Z" transform="translate(0.115 0.119)" fill="#a7a9ac"/>
      </g>
      <path id="_Compound_Path_4" d="M.888,14.778A.908.908,0,0,1,0,13.854V2.939A2.888,2.888,0,0,1,2.826,0,2.888,2.888,0,0,1,5.652,2.939l0,2.912a.539.539,0,0,0,0,.215A2.944,2.944,0,0,1,3.626,8.881l1.93,4.373a.957.957,0,0,1-.077.938.882.882,0,0,1-.724.387.855.855,0,0,1-.1-.006A.9.9,0,0,1,3.931,14L1.778,9.118v4.736A.908.908,0,0,1,.888,14.778ZM2.826,1.85A1.07,1.07,0,0,0,1.778,2.939V6.07A1.07,1.07,0,0,0,2.826,7.159,1.071,1.071,0,0,0,3.873,6.07a.216.216,0,0,1,.006-.045.136.136,0,0,0,0-.063.4.4,0,0,1-.01-.108V2.939A1.07,1.07,0,0,0,2.826,1.85Z" transform="translate(28.379 0.052)" fill="#a7a9ac"/>
      <path id="_Path_10" d="M2.826,0A2.884,2.884,0,0,0,0,2.939a.907.907,0,0,0,.889.924.907.907,0,0,0,.889-.924,1.1,1.1,0,0,1,.511-.978,1.013,1.013,0,0,1,1.07,0,1.1,1.1,0,0,1,.511.978V6.695H2.826a.925.925,0,0,0,0,1.848H3.873V12a1.1,1.1,0,0,1-.511.978,1.013,1.013,0,0,1-1.07,0A1.1,1.1,0,0,1,1.78,12a.907.907,0,0,0-.889-.924A.907.907,0,0,0,0,12a2.884,2.884,0,0,0,2.826,2.939A2.884,2.884,0,0,0,5.655,12V2.938A3,3,0,0,0,4.825.859a2.771,2.771,0,0,0-2-.859Z" transform="translate(52.278 0.054)" fill="#a7a9ac"/>
    </g>
    <g id="_Group_7" transform="translate(714 131)">
      <path id="_Path_11" d="M6.7,0A2.753,2.753,0,0,0,4.76.805,2.744,2.744,0,0,0,1.708.248,2.944,2.944,0,0,0,0,2.938V13.852a.907.907,0,0,0,.889.924.907.907,0,0,0,.889-.924V2.938A1.069,1.069,0,0,1,2.824,1.848,1.069,1.069,0,0,1,3.871,2.938V7.619a.889.889,0,1,0,1.777,0V2.938a1.048,1.048,0,1,1,2.094,0V13.852a.889.889,0,1,0,1.777,0V2.938A2.884,2.884,0,0,0,6.7,0Z" transform="translate(0.068 0.087)" fill="#a7a9ac"/>
      <path id="_Compound_Path_5" d="M4.76,14.778a.908.908,0,0,1-.888-.924V8.791a2.685,2.685,0,0,1-2.094,0v5.062a.908.908,0,0,1-.889.924A.908.908,0,0,1,0,13.854V2.939A2.888,2.888,0,0,1,2.826,0,2.888,2.888,0,0,1,5.648,2.938V13.854A.908.908,0,0,1,4.76,14.778ZM2.826,1.849A1.07,1.07,0,0,0,1.778,2.938v3.13A1.07,1.07,0,0,0,2.826,7.157,1.07,1.07,0,0,0,3.873,6.068V2.938A1.07,1.07,0,0,0,2.826,1.849Z" transform="translate(16.391 0.103)" fill="#a7a9ac"/>
      <g id="_Group_8" transform="translate(40.032)">
        <path id="_Path_12" d="M2.826,14.776A2.884,2.884,0,0,1,0,11.837a.907.907,0,0,1,.889-.924.907.907,0,0,1,.889.924,1.069,1.069,0,0,0,1.047,1.089,1.069,1.069,0,0,0,1.047-1.089V.924a.889.889,0,1,1,1.777,0V11.839a2.884,2.884,0,0,1-2.823,2.938Z" transform="translate(0.115 0.119)" fill="#a7a9ac"/>
      </g>
      <path id="_Compound_Path_6" d="M.888,14.778A.908.908,0,0,1,0,13.854V2.939A2.888,2.888,0,0,1,2.826,0,2.888,2.888,0,0,1,5.652,2.939l0,2.912a.539.539,0,0,0,0,.215A2.944,2.944,0,0,1,3.626,8.881l1.93,4.373a.957.957,0,0,1-.077.938.882.882,0,0,1-.724.387.855.855,0,0,1-.1-.006A.9.9,0,0,1,3.931,14L1.778,9.118v4.736A.908.908,0,0,1,.888,14.778ZM2.826,1.85A1.07,1.07,0,0,0,1.778,2.939V6.07A1.07,1.07,0,0,0,2.826,7.159,1.071,1.071,0,0,0,3.873,6.07a.216.216,0,0,1,.006-.045.136.136,0,0,0,0-.063.4.4,0,0,1-.01-.108V2.939A1.07,1.07,0,0,0,2.826,1.85Z" transform="translate(28.379 0.052)" fill="#a7a9ac"/>
      <path id="_Path_13" d="M2.826,0A2.884,2.884,0,0,0,0,2.939a.907.907,0,0,0,.889.924.907.907,0,0,0,.889-.924,1.1,1.1,0,0,1,.511-.978,1.013,1.013,0,0,1,1.07,0,1.1,1.1,0,0,1,.511.978V6.695H2.826a.925.925,0,0,0,0,1.848H3.873V12a1.1,1.1,0,0,1-.511.978,1.013,1.013,0,0,1-1.07,0A1.1,1.1,0,0,1,1.78,12a.907.907,0,0,0-.889-.924A.907.907,0,0,0,0,12a2.884,2.884,0,0,0,2.826,2.939A2.884,2.884,0,0,0,5.655,12V2.938A3,3,0,0,0,4.825.859a2.771,2.771,0,0,0-2-.859Z" transform="translate(52.278 0.054)" fill="#a7a9ac"/>
    </g>
  </g>
</svg>
